<?xml version="1.0" standalone="no"?>
<!DOCTYPE svg PUBLIC "-//W3C//DTD SVG 1.1//EN" "http://www.w3.org/Graphics/SVG/1.1/DTD/svg11.dtd" >
<svg xmlns="http://www.w3.org/2000/svg">
<metadata>
Created by FontPrep 20130207 at Tue Apr 15 23:53:32 2014
 By Brian Behrens
Copyright (C) 1996 Emigre Graphics, Designed by Zuzana Licko
</metadata>
<defs>
<font id="1ef04d13a00443a18a42399f23fa06fe" horiz-adv-x='1024' >
  <font-face 
    font-family="MrsEavesItalic"
    font-weight="5"
    font-style="italic"
    font-stretch="normal"
    units-per-em="2048"
    panose-1="0 0 0 0 0 0 0 0 0 0"
    ascent="1638"
    descent="-410"
    x-height="708"
    cap-height="1229"
    bbox="-542.065 -546 2202 1719"
    underline-thickness="51"
    underline-position="-150"
    slope="-12"
    unicode-range="U+0020-F002"
  />
<missing-glyph horiz-adv-x="1450" 
d="M1270 90v1270h-1089v-1270h1089zM90 0v1451h1270v-1451h-1270z" />
    <glyph glyph-name=".notdef" horiz-adv-x="1450" 
d="M1270 90v1270h-1089v-1270h1089zM90 0v1451h1270v-1451h-1270z" />
    <glyph glyph-name=".null" horiz-adv-x="0" 
 />
    <glyph glyph-name="nonmarkingreturn" horiz-adv-x="358" 
 />
    <glyph glyph-name="space" unicode=" " horiz-adv-x="358" 
 />
    <glyph glyph-name="exclam" unicode="!" horiz-adv-x="614" 
d="M442 1263q38 0 61.5 -24t23.5 -47t-1 -28q-143 -493 -212 -836h-68q39 272 55 466t30 370q9 43 41 71t70 28zM220 -17q-38 0 -60 24t-21 47t5 46t36 52t70 29t62 -24t24 -47q1 -61 -38.5 -94t-77.5 -33z" />
    <glyph glyph-name="quotedbl" unicode="&#x22;" horiz-adv-x="740" 
d="M708 1263q38 0 62 -24t24 -47t-2 -28q-113 -237 -145 -358h-34q7 60 7 128t-12 142t-11 88q9 43 41 71t70 28zM366 1263q38 0 62 -24t24 -47t-1 -28q-38 -80 -79 -170t-67 -188h-34q7 60 7 128t-12 142t-10 88q9 43 40.5 71t69.5 28z" />
    <glyph glyph-name="numbersign" unicode="#" horiz-adv-x="890" 
d="M379 643h217l80 227h-217zM678 643h160l-38 -107h-160l-85 -251h-82l87 251h-219l-85 -251h-82l87 251h-160l37 107h159l80 227h-159l38 108h159l87 251h82l-87 -251h216l87 251h82l-87 -251h161l-38 -108h-160z" />
    <glyph glyph-name="dollar" unicode="$" horiz-adv-x="1020" 
d="M369 914q0 -88 152 -180l66 379q-77 -7 -147.5 -59t-70.5 -140zM741 335v10q0 58 -48 112.5t-132 97.5l-78 -444q94 0 166.5 59t89.5 151q2 7 2 14zM853.5 973q-20.5 0 -68.5 62t-125 74l-73 -413l132 -75q68 -39 109 -99.5t41 -123.5q0 -10 -4 -31q-26 -143 -140 -239
t-256 -96l-36 -203h-73l38 207q-138 12 -220 76t-72 124q3 22 20.5 37t35.5 15t80.5 -79t168.5 -95l84 478l-87 53q-75 46 -118 99t-43 128q0 141 112 232t242 91l37 204h74l-38 -208q114 -11 180 -63t59 -102q-3 -20 -21 -36.5t-38.5 -16.5z" />
    <glyph glyph-name="percent" unicode="%" horiz-adv-x="1561" 
d="M355 903q0 -167 148 -167q89 0 160 79t71 223q0 73 -37.5 119t-119.5 46t-142.5 -69t-70 -140.5t-9.5 -90.5zM942 195q0 -168 149 -168q89 0 147.5 66t75.5 168q2 17 4.5 32.5t2.5 34.5q0 167 -149 167q-89 0 -150 -68.5t-70.5 -141t-9.5 -90.5zM500 676
q-120 0 -192 70.5t-72 176.5q0 144 117.5 242t236.5 98t192 -70t73 -176q0 -149 -117.5 -245t-237.5 -96zM1376 1229l-1009 -1265l-67 36l1009 1266zM1086 -32q-119 0 -192 70t-73 175q0 144 118.5 243t237.5 99t192 -70t73 -176q0 -145 -118.5 -243t-237.5 -98z" />
    <glyph glyph-name="ampersand" unicode="&#x26;" horiz-adv-x="1160" 
d="M682 1176q-68 0 -120 -52q-76 -75 -76 -210t59 -274t196 -375q24 40 117 255q16 37 62 72.5t116 35.5t106 -44t30 -80q-12 -78 -71 -79q-43 0 -53 69t-50 69t-67.5 -33t-69.5 -128t-84 -192l20 -36q76 -126 160 -126q53 0 127 70l24 -34q-93 -118 -200 -118
q-108 0 -205 138q-123 -138 -287 -138q-125 0 -209 72t-84 208v22q0 22 7 56q19 102 87 178t182 153q-49 137 -49 246l7 67q22 131 125 213q104 82 214 82t168.5 -58t58.5 -147l-3 -44q-19 -114 -123 -191l-36 63q47 62 53 106t7 54q0 58 -35.5 94t-103.5 36zM256 253
q0 -81 54 -145t162 -64q107 0 199 110q-181 288 -241 426q-143 -128 -171 -290q-3 -24 -3 -37z" />
    <glyph glyph-name="quotesingle" unicode="'" horiz-adv-x="399" 
d="M366 1263q38 0 62 -24t24 -47t-1 -28q-38 -80 -79 -170t-67 -188h-34q7 60 7 128t-12 142t-10 88q9 43 40.5 71t69.5 28z" />
    <glyph glyph-name="parenleft" unicode="(" horiz-adv-x="733" 
d="M212 454q0 535 617 981l41 -42q-118 -113 -206 -209t-176 -249q-134 -233 -135 -490q0 -200 89 -389q42 -92 150 -240l-53 -43q-327 312 -327 681z" />
    <glyph glyph-name="parenright" unicode=")" horiz-adv-x="733" 
d="M490 768q0 196 -89 384q-46 99 -148 241l54 42q324 -311 324 -677q5 -322 -227 -620q-145 -189 -390 -365l-40 43q108 101 200 203q92 101 182 255q134 228 134 494z" />
    <glyph glyph-name="asterisk" unicode="*" horiz-adv-x="832" 
d="M217 650q-67 0 -67 71q0 18 13.5 40t37.5 34q202 43 296 86q-51 31 -123 48.5t-142 36.5q-27 19 -27 49q0 57 37.5 76.5t58 19.5t35.5 -10q39 -58 79.5 -107.5t96.5 -87.5q5 41 5 88t-11 113q-10 66 -6 87t30 45t57 24t51.5 -24t13.5 -55q-94 -191 -113 -278
q61 34 122 87l122 106q20 10 52 10t51 -37q3 -10 3 -30q0 -49 -51 -78q-79 -19 -154 -36t-140 -47q55 -31 124 -49t139 -35q27 -17 27 -51t-22.5 -64t-70.5 -30q-20 0 -36 10q-41 56 -82 106.5t-94 86.5q-5 -39 -5 -87t12 -113t8 -87t-31.5 -46t-59.5 -24t-50.5 24t-11.5 55
q36 73 66.5 140.5t44.5 137.5q-61 -34 -123 -88t-121 -107q-20 -10 -41 -10z" />
    <glyph glyph-name="plus" unicode="+" 
d="M553 515h323l-16 -90h-322l-57 -323h-90l56 323h-321l16 90h321l56 321h90z" />
    <glyph glyph-name="comma" unicode="," horiz-adv-x="512" 
d="M202 181q40 0 66 -24t26 -73q0 -86 -74 -186t-172 -156l-19 24q68 60 101.5 108t53.5 111l-17 -2q-36 0 -58 24t-21 47q2 23 6 46t36 52t72 29z" />
    <glyph glyph-name="hyphen" unicode="-" 
d="M785 391h-597l15 90h597z" />
    <glyph glyph-name="period" unicode="." horiz-adv-x="512" 
d="M170 -17q-38 0 -60.5 24t-21.5 47q2 23 6 46t36 52t70 29t61.5 -24t23.5 -47q0 -61 -38.5 -94t-76.5 -33z" />
    <glyph glyph-name="slash" unicode="/" horiz-adv-x="711" 
d="M848 1229l-804 -1265l-66 36l804 1266z" />
    <glyph glyph-name="zero" unicode="0" horiz-adv-x="1082" 
d="M282 316q0 -273 228 -273q122 0 212 112q110 136 121.5 263.5t11.5 153.5q1 273 -229 273q-122 0 -212 -111q-109 -137 -120.5 -265.5t-11.5 -152.5zM495 -34q-160 0 -254 109t-94 273q0 38 8 96q34 198 179.5 338t305.5 140t255 -108.5t95 -275.5q0 -39 -9 -94
q-34 -198 -180 -338t-306 -140z" />
    <glyph glyph-name="one" unicode="1" horiz-adv-x="725" 
d="M365 717q0 60 -37.5 80t-132.5 20l8 43l336 68l-114 -646q-15 -86 -15 -142t29 -76.5t105 -20.5l-6 -43h-453l7 43q102 0 140 43.5t65 195.5l56 314q12 61 12 121z" />
    <glyph glyph-name="two" unicode="2" horiz-adv-x="976" 
d="M725 638v31q0 82 -56 124t-132 42t-151 -58t-75 -157q0 -46 24 -93l-69 -63q-82 65 -82 156q0 125 115 213q115 89 255 89t227.5 -63.5t87.5 -169.5q0 -14 -4 -42q-27 -144 -220 -287l-326 -241h478l-101 -281h-42q7 34 6 65q0 60 -44 78.5t-172 18.5h-348l8 49l442 335
q158 120 176 239q3 12 3 15z" />
    <glyph glyph-name="three" unicode="3" horiz-adv-x="962" 
d="M544 835q-80 0 -158 -60.5t-76 -170.5q0 -36 25 -77l-69 -63q-82 65 -82 156q0 125 115 213q115 89 255 89t227.5 -63.5t87.5 -169.5q0 -14 -4 -42q-28 -148 -222 -287l-95 -72q113 -26 173.5 -99t60.5 -174q0 -171 -142 -284t-289 -113t-231 78t-71 149q6 51 57 51
q15 0 61 -100.5t193 -100.5q94 -1 170 67t100 197q2 17 4.5 32.5t2.5 35.5q0 179 -163 209q-2 -4 -44 -50t-64 -46t-34.5 12t-7.5 39t48 62l174 131q179 136 179 168v117q0 80 -50.5 123t-130.5 43z" />
    <glyph glyph-name="four" unicode="4" horiz-adv-x="1035" 
d="M681 160q101 0 137 32t69 124l14 41h33l-62 -272h-266l-27 -152q-18 -100 -18 -150q0 -49 26.5 -68.5t96.5 -19.5l-6 -43h-427l7 43q97 0 131 42.5t62 195.5l27 152h-430l7 40l669 882h44l-148 -847h61zM492 160l99 564l-427 -564h328z" />
    <glyph glyph-name="five" unicode="5" horiz-adv-x="942" 
d="M456 387q-76 1 -146 -49t-98 -154h-69l183 703h317q118 -1 161 31t82 125h34l-96 -284h-466l-95 -378q36 41 100 65.5t125 24.5q135 0 211 -92t76 -237q0 -233 -159 -378.5t-298 -145.5t-214 72t-75 144q0 14 3.5 38t51.5 24q19 0 61.5 -100.5t163.5 -100.5t203 99
t108 250q14 77 13 133q0 210 -177 210z" />
    <glyph glyph-name="six" unicode="6" horiz-adv-x="1000" 
d="M444 -34q-113 0 -190 75q-101 99 -100 307q0 92 18 196q51 286 202 506t351 220q109 0 182 -51t63 -105t-62 -54q-17 0 -66.5 71.5t-126.5 71.5q-255 0 -382 -590q44 53 109 87t138 34q137 0 224 -90.5t87 -225.5l-7 -68q-27 -159 -156 -271.5t-284 -112.5zM297 317
q0 -155 60 -223q41 -46 102 -46q115 0 187 90q102 127 102 299q0 95 -44 155t-134 60q-89 0 -160.5 -43.5t-97.5 -108.5q-15 -82 -15 -183z" />
    <glyph glyph-name="seven" unicode="7" horiz-adv-x="887" 
d="M188 -382q-62 0 -63 54q0 31 23 72l629 1033h-309q-120 1 -162 -31t-79 -125l-17 -41h-38l163 487h37q-7 -37 -7 -81t39.5 -62.5t153.5 -18.5h329l-8 -57l-608 -1130q-50 -100 -83 -100z" />
    <glyph glyph-name="eight" unicode="8" horiz-adv-x="1000" 
d="M466 672q-157 121 -157 268q0 146 116 234.5t239 88.5t197 -64t74 -177t-104 -206q-65 -58 -186 -116q109 -67 173 -142t64 -179q0 -29 -5 -60q-27 -154 -152 -253.5t-273 -99.5t-236 81t-88 211q0 165 130 286q73 68 208 128zM256 247q0 -85 52 -143t156 -60
q106 0 192 84t90 210q0 109 -106 205q-25 24 -121 92q-104 -61 -170 -135t-88 -201q-5 -26 -5 -52zM444 1034v-77q0 -72 38 -122t114 -101q80 44 146 121t65 158t-39 127t-116 44q-78 0 -142 -66q-66 -66 -66 -84z" />
    <glyph glyph-name="nine" unicode="9" horiz-adv-x="1000" 
d="M759 568q0 155 -59 224q-43 48 -103 48q-113 0 -186 -90q-102 -126 -102 -298q1 -97 43 -157q42 -59 132 -59t161.5 42t98.5 109q15 106 15 181zM611 922q114 0 189 -74q101 -97 101 -305q0 -96 -19 -200q-51 -288 -191 -493q-159 -232 -360 -232q-109 0 -182 51t-63 105
t61 54q17 0 66.5 -72t126.5 -72q142 0 245 188q84 150 137 403q-43 -53 -107 -87t-139 -34q-137 0 -223.5 90.5t-86.5 224.5l6 69q27 159 155.5 271.5t283.5 112.5z" />
    <glyph glyph-name="colon" unicode=":" horiz-adv-x="512" 
d="M256 372q-38 0 -60 24t-22 47t4.5 46t36.5 52t72 29t65 -30t17 -70t-41.5 -69t-71.5 -29zM186 -17q-38 0 -60 24t-21 47t5 46t36 52t70 29t62 -24t24 -47q0 -61 -39 -94t-77 -33z" />
    <glyph glyph-name="semicolon" unicode=";" horiz-adv-x="512" 
d="M219 181q40 0 66 -24t26 -73q1 -86 -73 -186t-173 -156l-19 24q68 60 101.5 108t53.5 111l-17 -2q-36 0 -58 24t-21 47t5 46t36.5 52t72.5 29zM256 372q-38 0 -60 24t-22 47t4.5 46t36.5 52t72 29t65 -30t17 -70t-41.5 -69t-71.5 -29z" />
    <glyph glyph-name="less" unicode="&#x3c;" horiz-adv-x="1024" 
d="M848 140l-36 -38l-595 446l752 445l24 -36l-548 -409z" />
    <glyph glyph-name="equal" unicode="=" 
d="M768 288h-597l15 91h597zM812 544h-597l17 91h597z" />
    <glyph glyph-name="greater" unicode="&#x3e;" horiz-adv-x="1024" 
d="M899 548l-752 -446l-26 38l550 408l-405 409l38 36z" />
    <glyph glyph-name="question" unicode="?" horiz-adv-x="1006" 
d="M434 -17q-38 0 -60 24t-21 47t0 28q9 41 41 70t70 29t62 -24t24 -47q0 -61 -39 -94t-77 -33zM594 654q-133 -70 -133 -154q1 -84 111 -84q54 0 128 45v-53q-27 -19 -77.5 -37t-100.5 -18t-96 36t-45 108q0 115 129 206q101 61 202 123q128 89 128 196q0 66 -48 110
t-134 44q-85 0 -156.5 -53t-73.5 -151q0 -22 19 -59l-90 -41q-41 51 -41 114q0 120 108 199q108 78 239 78t216 -64t85 -168q0 -156 -148 -258q-7 -5 -222 -119z" />
    <glyph glyph-name="at" unicode="@" horiz-adv-x="1448" 
d="M79 507q0 326 244 550.5t541 224.5q232 0 378.5 -133.5t146.5 -351.5v-34q-2 -14 -1 -21q-17 -193 -154.5 -348t-270.5 -155q-56 0 -88 30.5t-39 75.5q-36 -46 -99 -79.5t-112 -33.5q-99 0 -149.5 65t-50.5 176q0 60 19 135q43 155 163 265t250 110q43 0 65.5 -6
t62.5 -28h114l-136 -514q-9 -31 -9 -60q0 -63 63 -63q85 0 187 132t117 295q2 14 2 17v32q0 193 -125 303t-311 110q-256 0 -465.5 -200.5t-209.5 -495.5q0 -229 136.5 -363.5t362.5 -134.5t443 131l18 -37q-243 -164 -495 -164t-425 163t-173 407zM555 464q0 -150 85 -150
t145 54.5t82 134.5l94 362q-37 53 -121 53q-85 0 -157 -90t-100 -194q-28 -106 -28 -170z" />
    <glyph glyph-name="A" unicode="A" horiz-adv-x="989" 
d="M660 502l-71 483l-241 -483h312zM166 106q0 -63 122 -63l-6 -43h-378l7 43q84 0 120.5 31.5t94.5 147.5l521 1041h39l155 -1041q17 -116 41 -147.5t110 -31.5l-7 -43h-435l6 43q82 0 117 25.5t35 85.5l-3 44l-34 229h-362l-114 -229q-29 -61 -29 -92z" />
    <glyph glyph-name="B" unicode="B" horiz-adv-x="986" 
d="M916 404q0 -29 -5 -59q-26 -147 -140 -246t-268 -99h-486l7 43q97 0 131 42.5t62 196.5l118 665q17 95 17 147q0 53 -26.5 72.5t-98.5 19.5l7 43h444q121 0 191.5 -69t70.5 -178t-58 -188t-126 -127q73 -32 116.5 -102t43.5 -161zM546 691q87 0 167.5 76.5t80.5 201.5
q0 80 -45.5 132.5t-120.5 52.5h-126l-82 -463h126zM490 75q99 0 190 91t91 237q0 92 -50 152.5t-136 60.5h-177l-55 -302q-17 -95 -17 -147t26.5 -72t96.5 -20h31z" />
    <glyph glyph-name="C" unicode="C" horiz-adv-x="1105" 
d="M1010 756q0 203 -63 315t-186 112q-154 0 -275 -188q-104 -160 -143 -381q-15 -87 -15 -179q0 -166 57 -277q57 -112 179 -112t227 113.5t170 313.5h43l-81 -451h-42q0 97 -21 118q-155 -174 -318 -174t-266.5 140.5t-103.5 359.5q0 67 14 148q48 268 219.5 458.5
t365.5 190.5q166 0 256 -174q30 25 64 118h42l-80 -451h-43z" />
    <glyph glyph-name="D" unicode="D" horiz-adv-x="1138" 
d="M336 166q0 -56 25 -73.5t91 -17.5q366 0 459 539q20 111 21 200q0 338 -285 340h-145l-149 -840q-17 -92 -17 -148zM352 1094q0 53 -26.5 72.5t-98.5 19.5l7 43h428q212 0 315 -121t103 -326q0 -80 -15 -168q-47 -270 -205 -442t-415 -172h-428l7 43q97 0 131 42.5
t62 196.5l118 665q17 94 17 147z" />
    <glyph glyph-name="E" unicode="E" horiz-adv-x="918" 
d="M638 517q0 58 -34 77t-123 19h-75l-53 -299q-17 -95 -17 -147t26.5 -72t96.5 -20h130q101 -1 137 31t69 124l14 41h32l-61 -271h-763l7 43q97 0 131 42.5t62 196.5l118 665q17 95 17 147q0 53 -26.5 72.5t-98.5 19.5l7 43h711l-34 -272h-32v41q-1 90 -27 123t-125 33
h-225l-82 -466h75q116 0 153.5 34t59.5 162h33l-82 -468h-33q12 91 12 101z" />
    <glyph glyph-name="F" unicode="F" horiz-adv-x="843" 
d="M638 517q0 58 -34 77t-123 19h-75l-58 -331q-17 -95 -17 -147q0 -53 26.5 -72.5t96.5 -19.5l-7 -43h-430l7 43q97 0 131 42.5t62 196.5l118 665q17 95 17 147q0 53 -26.5 72.5t-98.5 19.5l7 43h737l-34 -272h-32v41q0 90 -27 123t-125 33h-251l-82 -466h75
q116 0 153.5 34t59.5 162h33l-82 -468h-33q12 91 12 101z" />
    <glyph glyph-name="G" unicode="G" horiz-adv-x="1157" 
d="M889 369q0 97 -130 97l9 43h420l-9 -43q-96 0 -129 -42.5t-62 -196.5l-27 -155q-65 0 -138 -33q-167 -73 -280 -73q-164 0 -267.5 140.5t-103.5 359.5q0 67 14 148q48 268 219.5 458.5t365.5 190.5q166 0 256 -174q30 25 64 118h42l-80 -451h-43q0 203 -63 315t-186 112
q-154 0 -276 -188q-106 -160 -145 -381q-15 -85 -16 -172q0 -172 62 -284t186 -112t207 72.5t105 204.5q5 26 5 46z" />
    <glyph glyph-name="H" unicode="H" horiz-adv-x="1218" 
d="M331 135q0 -53 26.5 -72.5t96.5 -19.5l-7 -43h-430l7 43q97 0 131 42.5t62 196.5l118 665q17 95 17 147q0 53 -26.5 72.5t-98.5 19.5l7 43h430l-7 -43q-96 0 -130 -42.5t-61 -196.5l-46 -258h519l46 258q17 95 17 147q0 53 -26.5 72.5t-98.5 19.5l7 43h430l-7 -43
q-96 0 -130 -42.5t-61 -196.5l-118 -665q-17 -95 -17 -147q0 -53 26.5 -72.5t96.5 -19.5l-7 -43h-430l7 43q97 0 131.5 42.5t61.5 196.5l58 332h-519l-58 -332q-17 -94 -17 -147z" />
    <glyph glyph-name="I" unicode="I" horiz-adv-x="566" 
d="M352 1094q0 53 -26.5 72.5t-98.5 19.5l7 43h430l-7 -43q-96 0 -130 -42.5t-61 -196.5l-118 -665q-17 -95 -17 -147q0 -53 26.5 -72.5t96.5 -19.5l-7 -43h-430l7 43q97 0 131 42.5t62 196.5l118 665q17 94 17 147z" />
    <glyph glyph-name="J" unicode="J" horiz-adv-x="564" 
d="M352 1094q0 53 -26.5 72.5t-98.5 19.5l7 43h430l-7 -43q-96 0 -130 -42.5t-61 -196.5l-186 -1058q-31 -171 -117 -258q-87 -87 -187 -87t-152 50t-42 101q12 53 66 52q43 0 57.5 -71.5t76.5 -71.5t100 60t66 225l187 1058q17 94 17 147z" />
    <glyph glyph-name="K" unicode="K" horiz-adv-x="1075" 
d="M983 44q-71 -70 -149 -70q-42 0 -83 40.5t-41 101.5l-12 140q0 360 -148 358q-100 0 -166 -128l-36 -204q-17 -95 -17 -147q0 -53 26.5 -72.5t96.5 -19.5l-7 -43h-430l7 43q97 0 131 42.5t62 196.5l118 665q17 95 17 147q0 53 -26.5 72.5t-98.5 19.5l7 43h430l-7 -43
q-96 0 -130 -42.5t-61 -196.5l-58 -331l177 234q174 229 268 302t186 73q56 0 90.5 -35.5t34.5 -75.5t-19.5 -61.5t-45.5 -21.5q-38 0 -49.5 49.5t-51.5 49.5q-106 0 -370 -323l-106 -131q38 12 75 12q135 0 186 -191q12 -48 45 -226l25 -140q12 -85 48 -85t82 46v-48z" />
    <glyph glyph-name="L" unicode="L" horiz-adv-x="901" 
d="M352 1094q0 53 -26.5 72.5t-98.5 19.5l7 43h430l-7 -43q-96 0 -130 -42.5t-61 -196.5l-113 -633q-17 -95 -17 -147t26.5 -72t96.5 -20h181q101 -1 137 31t70 124l13 41h33l-62 -271h-814l7 43q97 0 131 42.5t62 196.5l118 665q17 94 17 147z" />
    <glyph glyph-name="M" unicode="M" horiz-adv-x="1413" 
d="M263 155q0 -113 124 -112l-6 -43h-374l7 43q89 0 124 50t69 189l168 665q42 173 1.5 206t-108.5 33l7 43h290l143 -975l488 975h272l-7 -43q-96 0 -137 -53t-54 -186l-67 -665q-9 -79 -8.5 -94.5t0.5 -27.5q0 -63 23.5 -90t90.5 -27l-7 -43h-428l7 43q94 0 136.5 56
t54.5 183l75 701l-512 -1017h-21l-151 1049l-181 -733q-19 -80 -19 -127z" />
    <glyph glyph-name="N" unicode="N" horiz-adv-x="1252" 
d="M1271 1263q63 0 94 -39.5t25 -75.5q-11 -67 -62 -66q-38 0 -46.5 49.5t-47 49.5t-72.5 -62t-66 -242l-162 -911h-36l-441 1038l-114 -647q-39 -227 -99 -309t-155 -82q-61 0 -92 39t-25 75q11 67 62 67q38 0 46.5 -49.5t47.5 -49.5t72.5 62t65.5 242l106 595
q17 95 17 147q0 53 -26.5 72.5t-97.5 19.5l6 43h244l401 -942l103 585q39 227 99 309t153 82z" />
    <glyph glyph-name="O" unicode="O" horiz-adv-x="1285" 
d="M799 1183q-174 0 -304 -188q-111 -159 -150 -381q-15 -82 -16 -169q0 -172 60 -276q70 -123 210 -123q176 0 306 188q107 156 146 380q15 85 16 174q0 169 -65 282t-203 113zM598 -34q-197 0 -310.5 144t-113.5 366q0 72 12 138q48 268 231.5 458.5t380.5 190.5
t310.5 -143.5t113.5 -363.5q0 -75 -12 -142q-46 -266 -230.5 -457t-381.5 -191z" />
    <glyph glyph-name="P" unicode="P" horiz-adv-x="872" 
d="M498 613q99 0 190.5 90.5t91.5 236.5q0 92 -50.5 153t-135.5 61h-92l-96 -541h92zM514 538h-120l-46 -256q-17 -95 -17 -147q0 -53 26.5 -72.5t96.5 -19.5l-7 -43h-430l7 43q97 0 131 42.5t62 196.5l118 665q17 95 17 147q0 53 -26.5 72.5t-98.5 19.5l7 43h401
q138 0 215 -77t77 -201l-7 -69q-27 -148 -138 -246t-268 -98z" />
    <glyph glyph-name="Q" unicode="Q" horiz-adv-x="1285" 
d="M1068 787q0 172 -64 284t-205 112q-174 0 -306 -188q-109 -157 -150 -381q-15 -82 -15 -167q0 -174 59 -278q70 -123 212 -123q176 0 306 188q109 158 148 380q15 85 15 173zM518 -125q95 0 206 -63q87 -58 174 -117q101 -63 196 -64q237 0 377 212l27 -14
q-61 -123 -184 -221t-280 -100q-108 0 -220 77q-94 73 -186 145q-108 80 -183 81q-111 0 -175 -65q-64 -66 -88 -68q-23 -2 -58.5 36.5t118.5 153.5q100 75 234 113q-142 44 -222 176.5t-80 318.5q0 72 12 138q48 268 231.5 458.5t380.5 190.5t310.5 -143.5t113.5 -363.5
q0 -75 -12 -142q-44 -258 -213 -440t-369 -206q-155 -20 -297 -116q92 23 187 23z" />
    <glyph glyph-name="R" unicode="R" horiz-adv-x="965" 
d="M816 46q33 0 82 46v-48q-27 -29 -73.5 -49.5t-94.5 -20.5t-84 36t-37 106l-10 207q-20 215 -135 215h-70l-46 -256q-17 -95 -17 -147q0 -53 26.5 -72.5t96.5 -19.5l-7 -43h-430l7 43q97 0 131 42.5t62 196.5l118 665q17 95 17 147q0 53 -26.5 72.5t-98.5 19.5l7 43h401
q138 0 215 -77t77 -201l-7 -69q-22 -123 -104 -214t-198 -120q87 -58 114 -210l36 -207q15 -85 48 -85zM498 613q99 0 190.5 90.5t91.5 236.5q0 92 -50.5 153t-135.5 61h-92l-96 -541h92z" />
    <glyph glyph-name="S" unicode="S" horiz-adv-x="853" 
d="M166 346q0 -136 63 -218t194 -82q73 0 140 56q89 75 89 200q0 61 -37.5 117.5t-131.5 126.5l-116 87q-130 100 -130 251v43q5 20 7 29q22 130 114.5 218.5t209.5 88.5t188 -84q43 43 63 94h41l-80 -450h-43q7 91 7 102q0 258 -179 256q-73 0 -141.5 -59.5t-68.5 -162.5
q0 -61 35 -109t98 -96l126 -90q157 -114 157 -285q0 -29 -5 -58q-29 -160 -136.5 -257.5t-238.5 -97.5q-94 0 -173 58q-18 14 -56 48q-53 -49 -75 -106h-41l80 450h43q-3 -26 -3 -70z" />
    <glyph glyph-name="T" unicode="T" horiz-adv-x="926" 
d="M428 1150q-131 0 -179 -32t-85 -123h-46l82 234h621q131 1 179 33t85 122h47l-82 -234h-371l-153 -868q-17 -95 -17 -147q0 -53 26 -72.5t96 -19.5l-6 -43h-430l6 43q97 0 131.5 42.5t61.5 196.5l154 868h-120z" />
    <glyph glyph-name="U" unicode="U" horiz-adv-x="1192" 
d="M236 323q0 68 11 134l88 490q17 95 17 147q0 53 -26.5 72.5t-96.5 19.5l7 43h428l-7 -43q-96 0 -130 -42.5t-61 -196.5l-89 -502q-12 -65 -12 -126q0 -130 59.5 -195.5t169.5 -65.5t202 98t124 289l89 502q17 95 17 147q0 53 -26.5 72.5t-96.5 19.5l7 43h382l-7 -43
q-96 0 -130 -42.5t-61 -196.5l-87 -490q-41 -232 -173 -362q-132 -129 -283 -129t-233 93t-82 264z" />
    <glyph glyph-name="V" unicode="V" horiz-adv-x="989" 
d="M394 1073q0 -14 4 -42l117 -787l393 787q29 61 29 92q0 63 -121 63l7 43h377l-7 -43q-84 0 -120.5 -31.5t-94.5 -147.5l-522 -1041h-40l-153 1041q-17 116 -41 147.5t-109 31.5l6 43h436l-7 -43q-84 0 -119 -26.5t-35 -86.5z" />
    <glyph glyph-name="W" unicode="W" horiz-adv-x="1373" 
d="M398 1065q0 -22 1 -34l74 -744l421 942h36l94 -947l336 749q27 63 28 94q0 61 -120 61l7 43h377l-7 -43q-84 0 -124 -33t-91 -146l-471 -1041h-39l-92 939l-424 -939h-39l-102 1041q-12 116 -37.5 147.5t-112.5 31.5l6 43h437l-6 -43q-85 0 -118.5 -28t-33.5 -93z" />
    <glyph glyph-name="X" unicode="X" horiz-adv-x="986" 
d="M521 43q126 0 126 72q0 35 -17 83l-111 334l-258 -334q-44 -58 -44 -97q0 -58 99 -58l-7 -43h-376l7 43q56 0 113 35t142 144l297 389l-134 396q-32 87 -73 133t-116 46l7 43h435l-7 -43q-126 0 -126 -82q0 -23 15 -73l99 -289l220 289q49 63 50 102q0 53 -103 53l7 43
h376l-7 -43q-87 0 -145 -49q-27 -22 -109 -130l-261 -343l148 -442q34 -97 72 -138t117 -41l-6 -43h-437z" />
    <glyph glyph-name="Y" unicode="Y" horiz-adv-x="955" 
d="M338 1249q118 0 167.5 -135.5t49.5 -468.5q106 294 198 434q111 169 232 169q56 0 87 -32t31 -71t-18 -58.5t-46 -19.5q-36 0 -49.5 49.5t-52.5 49.5q-89 0 -219 -272t-172 -501l-20 -111q-17 -95 -17 -147q0 -53 26 -72.5t96 -19.5l-6 -43h-434l7 43q97 0 131.5 42.5
t61.5 196.5l19 102q39 230 39 413q1 183 -49 281t-120 100q-22 0 -53 -16.5t-46 -31.5v48q63 71 157 71z" />
    <glyph glyph-name="Z" unicode="Z" horiz-adv-x="884" 
d="M346 166q-86 0 -148 -58q-63 -70 -125 -140q-46 -9 -46 63t158 273q158 200 343 400t320 320q-76 -27 -140 -27t-157.5 64t-158.5 64t-175 -116l-19 12q46 94 110 160q123 127 292 10q168 -117 199 -118q73 0 126 87.5t67 87.5q32 0 32 -36q0 -14 -4 -36
q-12 -59 -158 -212q-169 -171 -338 -377t-256 -355q55 10 96 10q138 0 227 -111q63 -105 132 -211t159 -106t185 65q34 24 88 72l26 -23q-171 -259 -355 -259q-108 0 -193 128q-65 119 -128 239q-73 130 -159 130z" />
    <glyph glyph-name="bracketleft" unicode="[" horiz-adv-x="733" 
d="M570 -179h-415l277 1567h415l-11 -65h-281l-255 -1437h282z" />
    <glyph glyph-name="backslash" unicode="\" horiz-adv-x="711" 
d="M732 0l-80 -36l-562 1265l81 37z" />
    <glyph glyph-name="bracketright" unicode="]" horiz-adv-x="733" 
d="M411 -179h-414l12 65h281l254 1437h-281l10 65h415z" />
    <glyph glyph-name="asciicircum" unicode="^" horiz-adv-x="993" 
d="M667 1263l311 -572l-43 -31l-307 374l-442 -374l-31 31z" />
    <glyph glyph-name="underscore" unicode="_" horiz-adv-x="733" 
d="M669 -90h-737l15 90h737z" />
    <glyph glyph-name="grave" unicode="`" horiz-adv-x="827" 
d="M271.5 1229q34.5 0 74.5 -48l159 -179l-12 -14l-261 120q-42 25 -37 53.5t23.5 48t53 19.5z" />
    <glyph glyph-name="a" unicode="a" horiz-adv-x="778" 
d="M575 -26q-84 0 -90 93q-39 -44 -94 -72.5t-101 -28.5q-106 0 -163 76.5t-57 201.5q0 31 9 97q29 155 139 265.5t239 110.5q68 0 132 -34h114l-97 -552q-18 -85 20 -85t84 46v-48q-29 -29 -68.5 -49.5t-66.5 -20.5zM442 652q-82 0 -145 -90q-97 -138 -97 -344
q0 -68 32 -119t94 -51t115.5 53.5t68.5 135.5l63 362q-49 53 -131 53z" />
    <glyph glyph-name="b" unicode="b" horiz-adv-x="754" 
d="M486 717q99 0 157 -77t58 -201q0 -217 -128.5 -345t-246.5 -128t-168 69t-50 154q0 17 3 41l123 700q19 91 19 147t-21.5 74t-76.5 18l7 43l244 51l-111 -638q92 92 191 92zM445 635q-60 0 -114.5 -54.5t-67.5 -135.5l-36 -208q-5 -31 -5 -54q0 -70 32.5 -106t78.5 -36
q85 1 145 85t76 180q17 96 18 145q0 184 -127 184z" />
    <glyph glyph-name="c" unicode="c" horiz-adv-x="597" 
d="M338 48q91 0 181 94l19 -41q-116 -135 -255 -135q-106 0 -161 70t-55 193q0 39 8 95q31 171 136 282t200 111q95 1 135 -43t33 -82t-22.5 -58t-46.5 -20q-43 0 -54.5 69t-51.5 69q-58 0 -120 -88t-89 -240q-9 -55 -9 -90q0 -186 152 -186z" />
    <glyph glyph-name="d" unicode="d" horiz-adv-x="778" 
d="M575 -26q-84 0 -90 93q-39 -44 -94 -72.5t-101 -28.5q-106 0 -163 76.5t-57 201.5q0 31 9 97q29 155 139 265.5t239 110.5q68 0 132 -34l42 247q19 91 19 147t-21 74t-76 18l7 43l244 51l-198 -1132q-18 -85 20 -85t84 46v-48q-29 -29 -68.5 -49.5t-66.5 -20.5zM442 652
q-82 0 -145 -90q-97 -138 -97 -344q0 -68 32 -119t94 -51t115.5 53.5t68.5 135.5l63 362q-49 53 -131 53z" />
    <glyph glyph-name="e" unicode="e" horiz-adv-x="640" 
d="M350 48q39 0 92 26.5t94 67.5l19 -41q-49 -58 -122 -96.5t-136 -38.5q-106 0 -166.5 79.5t-60.5 205.5q0 39 9 90q29 159 134.5 267.5t216.5 108.5q70 0 112 -40t42 -105q0 -105 -110 -194t-286 -127q0 -203 162 -203zM478 552v9q0 73 -62 74q-73 0 -133.5 -79.5
t-84.5 -215.5l-5 -33q125 29 197 95t86 136q2 7 2 14z" />
    <glyph glyph-name="f" unicode="f" horiz-adv-x="459" 
d="M-239 -418q0 75 68 75q41 0 48 -71.5t65 -71.5q46 0 76.5 60.5t56.5 207.5l147 827h-133l13 74h134l34 201q31 172 128 276q98 104 192 103q94 1 142 -49t39 -102t-63 -52q-41 0 -54.5 71.5t-71.5 71.5t-114 -79q-55 -79 -84 -240l-34 -201h164l-14 -74h-164l-147 -827
q-31 -172 -101 -250t-156 -78t-128.5 39t-42.5 89z" />
    <glyph glyph-name="g" unicode="g" horiz-adv-x="641" 
d="M616 717q58 0 81 -29t19 -57t-22 -48t-40 -20q-41 0 -48 41t-45 41q-19 0 -46 -17q51 -79 30 -191q-21 -111 -101 -194t-176 -83q-58 0 -117 -29.5t-66 -69t47 -61.5t115 -20q159 -14 235 -76t76 -150q0 -141 -122 -219.5t-267 -78.5t-228 52.5t-83 131.5q0 115 161 186
l32 -22q-84 -72 -95 -136q-12 -64 58 -106q70 -40 164 -40t181.5 48.5t87.5 135.5q0 61 -58 92t-239.5 51.5t-181.5 153.5q0 74 58.5 123.5t133.5 69.5q-80 63 -80 198t95 229t181 94t134 -55q68 55 126 55zM278 225q58 1 98 59t53 130t13 107q0 131 -89 131
q-58 0 -111 -76.5t-53 -213.5t89 -137z" />
    <glyph glyph-name="h" unicode="h" horiz-adv-x="788" 
d="M585 -26q-90 0 -90 105q0 10 3 37l50 285q10 55 10 107q0 112 -97 112q-58 0 -127 -84t-95 -231l-55 -305h-114l164 930q19 91 19 147t-21.5 74t-76.5 18l7 43l244 51l-124 -713q46 77 108 122t129 45q155 0 155 -200q0 -49 -10 -106l-48 -280q-3 -15 -3 -50t25 -35
q36 0 82 46v-48q-29 -29 -68 -49.5t-67 -20.5z" />
    <glyph glyph-name="i" unicode="i" horiz-adv-x="421" 
d="M324.5 937q-30.5 0 -48.5 20.5t-12 50.5t30.5 51t55.5 21t48 -20t12 -50t-30 -51.5t-55.5 -21.5zM177 637q-35 0 -81 -46v47q27 29 66 49.5t67 20.5q92 0 92 -106q0 -12 -4 -35l-76 -436q-17 -85 22 -85q33 0 82 46v-48q-29 -29 -68.5 -49.5t-66.5 -20.5q-91 0 -91 105
q0 10 4 37l77 435q3 15 3 51t-26 35z" />
    <glyph glyph-name="j" unicode="j" horiz-adv-x="399" 
d="M324.5 937q-30.5 0 -48.5 20.5t-12 50.5t30.5 51t55.5 21t48 -20t12 -50t-30 -51.5t-55.5 -21.5zM177 637q-35 0 -81 -46v47q27 29 66 49.5t67 20.5q92 0 92 -106q0 -12 -4 -35l-136 -768q-31 -173 -107 -259t-172 -86q-94 0 -142 50t-40 101q8 52 63 52q41 0 55 -71.5
t75 -71.5q53 0 89 60t65 225l133 752q3 15 3 51t-26 35z" />
    <glyph glyph-name="k" unicode="k" horiz-adv-x="720" 
d="M652 44q-70 -70 -151 -70q-40 0 -71 37.5t-31 104.5l-8 198q0 85 -53 85q-38 1 -91 -42l-63 -357h-114l164 930q19 91 19 147t-21.5 74t-76.5 18l7 43l244 51l-145 -823q104 138 175 203t138 65t98 -32.5t31 -74.5q0 -73 -63 -74q-38 0 -49.5 49.5t-50.5 49.5
q-38 0 -90 -40t-136 -144q26 9 68 9q92 0 108 -122l32 -198q7 -51 16.5 -68t38.5 -17t75 46v-48z" />
    <glyph glyph-name="l" unicode="l" horiz-adv-x="413" 
d="M177 -26q-90 0 -90 105q0 10 3 37l144 814q19 91 19 147t-21.5 74t-76.5 18l7 43l244 51l-198 -1132q-3 -15 -3 -50t25 -35q36 0 82 46v-48q-29 -29 -68 -49.5t-67 -20.5z" />
    <glyph glyph-name="m" unicode="m" horiz-adv-x="1181" 
d="M177 637q-35 0 -81 -46v47q27 29 66 49.5t67 20.5q92 0 92 -106q0 -12 -7 -52q38 73 102 120t134 47q136 0 136 -188q39 84 106.5 136t135.5 52q142 0 142 -179q0 -53 -14 -127l-47 -280q-17 -85 22 -85q33 0 82 46v-48q-29 -29 -68.5 -49.5t-66.5 -20.5q-91 0 -91 105
q0 10 4 37l49 285q14 77 14 120q0 99 -84 99q-60 0 -124 -82t-91 -233l-54 -305h-115l70 401q14 77 14 120q0 99 -84 99q-60 0 -124 -82t-91 -233l-54 -305h-115l98 551q3 15 3 51t-26 35z" />
    <glyph glyph-name="n" unicode="n" horiz-adv-x="820" 
d="M618 -26q-91 0 -91 105q0 10 4 37l49 285q25 140 -4.5 179.5t-85.5 39.5t-124 -84q-69 -84 -95 -231l-54 -305h-115l98 551q3 15 3 51t-26 35q-35 0 -81 -46v47q27 29 66 49.5t67 20.5q92 0 92 -106q0 -12 -7 -52q46 77 108.5 122t128.5 45q156 0 156 -200
q0 -49 -11 -106l-47 -280q-17 -85 22 -85q33 0 82 46v-48q-29 -29 -68.5 -49.5t-66.5 -20.5z" />
    <glyph glyph-name="o" unicode="o" horiz-adv-x="776" 
d="M335 29q87 0 153 95t78.5 200.5t12.5 132.5q0 197 -134 197q-89 0 -148 -86t-77 -188q-18 -100 -19 -155q0 -196 134 -196zM332 -34q-118 0 -189 84.5t-71 214.5v22q0 22 7 54q27 154 138 265t231 111t188.5 -84.5t68.5 -212.5v-48q-5 -21 -7 -31q-27 -154 -137.5 -264.5
t-228.5 -110.5z" />
    <glyph glyph-name="p" unicode="p" horiz-adv-x="788" 
d="M481 717q111 0 182 -84.5t71 -212.5v-48q-5 -20 -7 -31q-27 -159 -122.5 -267t-222.5 -108q-97 0 -153 94l-52 -290q-15 -85 -15 -141t30 -77t107 -21l-9 -43h-438l8 43q102 0 139 43.5t64 195.5l132 739q-65 -133 -154 -238l-34 26q73 87 148 253t111 365l16 94h114
l-56 -326q72 34 141 34zM606 467q0 71 -34 128t-92 57q-92 0 -156 -53l-63 -362q-3 -12 -3 -15v-29q0 -65 33 -105t84 -40q84 0 144 85q87 126 87 334z" />
    <glyph glyph-name="q" unicode="q" horiz-adv-x="754" 
d="M526 -371q0 -56 29.5 -77t106.5 -21l-8 -43h-439l9 43q102 0 138.5 43.5t64.5 195.5l51 290q-38 -41 -90 -67.5t-98 -26.5q-106 0 -163 76.5t-57 201.5q0 31 9 97q29 155 139 265.5t239 110.5q68 0 132 -34h114l-162 -913q-15 -85 -15 -141zM442 652q-82 0 -145 -90
q-97 -138 -97 -344q0 -68 32 -119t94 -51t115.5 53.5t68.5 135.5l63 362q-49 53 -131 53z" />
    <glyph glyph-name="r" unicode="r" horiz-adv-x="583" 
d="M613 624q0 -30 -3.5 -46t-23.5 -38t-54 -22q-32 0 -47.5 19t-12.5 37q2 18 2 23v7q0 22 -20 22q-49 0 -110 -112t-98 -316l-34 -198h-110l98 551q3 15 3 51t-26 35q-35 0 -81 -46v47q27 29 66 49.5t67 20.5q83 0 83 -100l-3 -41l-10 -52q80 201 208 202q55 0 80.5 -31.5
t25.5 -61.5z" />
    <glyph glyph-name="s" unicode="s" horiz-adv-x="494" 
d="M180 -34q-86 0 -133 45t-38.5 93t56.5 48q29 0 47.5 -60.5t95.5 -60.5q43 0 74.5 29.5t35 52t3.5 46.5t-19 58t-43 56l-73 70q-29 27 -49.5 73t-20.5 76q0 100 64 163q64 62 150 62q86 1 122 -39t28 -82t-42 -41q-34 0 -47.5 52.5t-71.5 52.5q-34 0 -64.5 -24.5t-35 -48
t-4.5 -55.5t63 -95l74 -70q72 -67 71 -160q0 -11 -3 -31q-18 -98 -86 -154t-154 -56z" />
    <glyph glyph-name="t" unicode="t" horiz-adv-x="467" 
d="M225 125q0 -77 52 -77t129 92l2 -56q-41 -56 -94 -87t-89 -31q-116 0 -116 147v27q2 10 9 56l73 413h-133l14 74h133l56 326h114l-56 -326h164l-14 -74h-164l-73 -413q-7 -36 -7 -71z" />
    <glyph glyph-name="u" unicode="u" horiz-adv-x="820" 
d="M671 46q33 0 82 46v-48q-29 -29 -68.5 -49.5t-66.5 -20.5q-91 0 -91 105q0 14 7 54q-46 -79 -109 -123t-130 -44q-155 0 -155 200q0 49 10 105l50 280q3 15 3 51t-26 35q-35 0 -81 -46v47q27 29 66 49.5t67 20.5q92 0 92 -106q0 -12 -4 -35l-51 -285q-10 -55 -10 -98
q0 -121 99 -121q58 1 127 85t95 229l54 306h115l-97 -552q-17 -85 22 -85z" />
    <glyph glyph-name="v" unicode="v" horiz-adv-x="699" 
d="M143 637q-33 0 -82 -46v47q27 29 66.5 49.5t67 20.5t57.5 -6t44 -6t42 21h34q-7 -39 -59 -207t-64 -239t-12 -117t26.5 -79.5t69.5 -33.5q73 0 160 104.5t87 328.5q0 68 -33 126t-29 78q7 39 45 39q37 0 63 -48.5t26 -132.5t-23 -217t-116 -243t-197 -110t-150 51
t-47 135q1 36 11 90t75 188.5t70 165.5q-39 17 -69 29t-63 12z" />
    <glyph glyph-name="w" unicode="w" horiz-adv-x="1039" 
d="M925 472q0 66 -35 123t-31 83q6 41 52 41q29 0 55 -52.5t26 -140.5t-17 -185q-29 -171 -111 -273t-175 -102q-125 0 -189 114q-102 -114 -194 -114q-93 0 -140 48.5t-47 136.5t77 260t79 185q-92 40 -128 40q-37 1 -86 -45v47q27 29 66.5 49.5t67.5 20.5l88 -10
q26 0 53 19h36q-5 -31 -60 -215t-65 -245t-10 -106q0 -44 26.5 -77t66.5 -33q76 0 150 84q-47 135 -19.5 290t76.5 228.5t87 73.5q76 0 77 -130q0 -130 -43.5 -238.5t-87.5 -176.5q40 -131 138 -131q63 -1 121 77t84 223q12 65 12 131zM647 586q0 48 -21 47q-34 0 -59 -145
t-11 -247q91 173 91 345z" />
    <glyph glyph-name="x" unicode="x" horiz-adv-x="612" 
d="M560 36q-70 -70 -147 -70q-39 0 -65.5 31.5t-43.5 110.5l-22 104q-121 -246 -227 -246q-41 0 -61 24t-20 46t3 35t13 29t22 16q31 0 31 -27q-3 -22 -4 -34q-1 -29 31 -29q52 0 152 192l41 84l-53 258q-19 85 -56 85q-17 0 -43.5 -16t-38.5 -30v48q66 70 146 70
q40 0 65.5 -32.5t42.5 -109.5l24 -104q72 142 124 194t98 52q44 0 63.5 -23.5t19.5 -47.5t-2.5 -37t-12 -27.5t-20.5 -14.5q-31 0 -31 27q3 22 3 34q0 29 -36 29q-50 0 -146 -193l-43 -83l55 -258q16 -85 54 -85t84 46v-48z" />
    <glyph glyph-name="y" unicode="y" horiz-adv-x="633" 
d="M497 503q0 82 -53 146q-24 27 -21 44q5 37 47 37t72 -44q49 -73 19 -237q-41 -237 -203 -469t-369 -378t-373 -146q-85 0 -124.5 32t-32.5 77q3 20 25 43t36 23t47.5 -43.5t103.5 -43.5q109 0 245.5 86.5t264.5 227.5q32 200 32 394q0 193 -35.5 289.5t-88.5 96.5
q-22 0 -50.5 -15t-45.5 -32v47q65 70 152 70t135.5 -111t48.5 -271t-20 -307q188 274 188 484z" />
    <glyph glyph-name="z" unicode="z" horiz-adv-x="576" 
d="M232 717q49 0 116.5 -53t103.5 -53t72 53t48 53q27 0 21 -33t-24.5 -63t-122.5 -136q-233 -237 -299 -348l51 5q96 0 172.5 -110.5t152.5 -110.5t137 57l24 -22q-51 -79 -102 -124t-121 -45t-150.5 148.5t-129.5 148.5q-55 0 -89 -35q-36 -43 -72 -83q-40 -12 -40 39
q0 10 1 17q13 60 191 254t284 287q-40 -10 -72 -10q-32 1 -94 25t-102 24q-41 0 -86 -46l-22 16q70 145 152 145z" />
    <glyph glyph-name="braceleft" unicode="{" horiz-adv-x="733" 
d="M406 118q0 -106 42 -163t148 -139l-41 -43q-169 106 -200 137q-92 90 -92 228q1 54 13 123t12 149t-34 114t-116 65l5 34q119 38 159 82q65 73 95 241t93 248q63 82 165 144q12 7 193 101l26 -43q-155 -94 -212 -157q-86 -94 -118 -279t-90 -255t-184 -99q90 -22 128 -62
t38 -122t-15 -168.5t-15 -135.5z" />
    <glyph glyph-name="bar" unicode="|" horiz-adv-x="552" 
d="M440 1451h91l-256 -1451h-91z" />
    <glyph glyph-name="braceright" unicode="}" horiz-adv-x="733" 
d="M411 809q0 51 14.5 143t14.5 140q0 102 -53 176q-36 48 -138 128l43 43q167 -108 198 -137q92 -90 92 -227q0 -56 -13 -123q-13 -66 -13 -148t43 -125q24 -26 108 -56l-6 -34q-118 -38 -157 -82q-68 -75 -97 -241t-92 -248t-166 -144q-12 -7 -191 -101l-27 43
q155 94 212 157q85 94 117 280q32 187 91 255q58 68 186 98q-89 22 -127 61t-39 142z" />
    <glyph glyph-name="asciitilde" unicode="~" horiz-adv-x="865" 
d="M635 529q79 0 126 116h39q-20 -114 -77 -178t-134 -64q-46 0 -146 67.5t-132.5 67.5t-68 -34.5t-56.5 -80.5h-38q17 106 74.5 172.5t115.5 66.5t156 -66.5t141 -66.5z" />
    <glyph glyph-name="nonbreakingspace" unicode="&#xa0;" horiz-adv-x="358" 
 />
    <glyph glyph-name="exclamdown" unicode="&#xa1;" horiz-adv-x="614" 
d="M158 -382q-38 0 -60.5 23t-22.5 47t72 279t138 586h68q-48 -332 -82 -836q-9 -41 -42 -70t-71 -29zM348 700q-38 0 -60 24t-22 47t4.5 46t37 52t72.5 29t65 -30t17 -70t-42 -69t-72 -29z" />
    <glyph glyph-name="cent" unicode="&#xa2;" horiz-adv-x="914" 
d="M321 464q0 -137 111 -186l97 555q-70 -38 -129 -122t-69 -156t-10 -91zM189 454v22q0 22 7 53q24 143 125 245t222 136l61 353h74l-60 -341h8q109 0 165 -36t56 -86q-1 -50 -31 -82t-70 -32t-60 24t-16 46t4 39q0 62 -58 62h-8l-106 -599l58 -5q118 0 235 93l29 -41
q-148 -135 -329 -134h-9l-61 -342h-73l61 348q-108 20 -166 94t-58 183z" />
    <glyph glyph-name="sterling" unicode="&#xa3;" horiz-adv-x="935" 
d="M708 1263q88 1 134 -41t46 -88q-1 -95 -82 -96q-46 0 -62 79t-90 79q-156 0 -210 -317l-34 -196h155l-14 -74h-155l-53 -295q-17 -95 -17 -147t26.5 -72t96.5 -20h191q101 -1 137 31t70 124l13 41h33l-62 -271h-814l7 43q97 0 131 42.5t62 196.5l58 327h-135l14 74h134
l35 196q33 195 141 289t244 95z" />
    <glyph glyph-name="currency" unicode="&#xa4;" horiz-adv-x="1024" 
d="M573 691q-69 0 -137.5 -58t-68.5 -135q0 -76 40.5 -117t110.5 -41t138.5 58t68.5 134q0 75 -41.5 117t-110.5 42zM835 561q0 -115 -84 -209l77 -96l-82 -70l-77 96q-80 -52 -171 -52t-157 52l-111 -96l-56 72l109 94q-26 49 -25 116q0 113 83 211l-76 92l81 70l76 -93
q85 52 176 52t153 -51l111 94l58 -70l-111 -94q26 -55 26 -118z" />
    <glyph glyph-name="yen" unicode="&#xa5;" horiz-adv-x="955" 
d="M509 145q0 -63 26 -82.5t96 -19.5l-6 -43h-434l7 43q97 0 131.5 42.5t61.5 196.5l3 13h-239l16 91h239l15 94h-237l15 90h234q12 113 12 213q1 200 -49 297t-120 98q-22 0 -53 -16.5t-46 -31.5v48q63 71 157 71q118 0 167.5 -135.5t49.5 -468.5q106 294 198 434
q111 169 232 169q56 0 87 -32t31 -71t-18 -58.5t-46 -19.5q-36 0 -49.5 49.5t-52.5 49.5q-72 0 -175 -187t-171 -409h209l-15 -90h-220l-21 -94h224l-15 -91h-224q-20 -87 -20 -150z" />
    <glyph glyph-name="brokenbar" unicode="&#xa6;" horiz-adv-x="431" 
d="M317 614l-107 -614h-91l108 614h90zM466 1451l-109 -615h-91l109 615h91z" />
    <glyph glyph-name="section" unicode="&#xa7;" horiz-adv-x="597" 
d="M468 594q0 43 -21.5 89t-47.5 71l-47 46q-93 -27 -103 -153q0 -70 72 -140l63 -60q84 40 84 147zM314 835q-92 92 -92 189t75 168t171 71q96 1 138 -37q41 -38 41 -73q0 -68 -46 -68q-39 0 -53 67t-74 67t-105.5 -39t-45.5 -116q0 -76 73 -144l87 -84q39 -38 64.5 -88
t25.5 -78q1 -28 -7 -74t-48 -101t-96 -85q76 -76 76 -171q0 -19 -1 -29q-19 -114 -99 -179t-175 -65t-152 46t-57 99t50 59t61 -39q29 -111 122 -111q65 0 108 48t41 101q-2 54 -23 100.5t-49 71.5l-87 84q-90 83 -90 172t49.5 151.5t117.5 86.5z" />
    <glyph glyph-name="dieresis" unicode="&#xa8;" horiz-adv-x="634" 
d="M638 1355q34 0 53 -23t13 -56t-34 -57t-59 -24t-49.5 17.5t-18.5 37.5t3.5 38.5t30.5 42.5t61 24zM367 1355q34 0 52.5 -23t12.5 -56t-34 -57t-58 -24t-49.5 17.5t-19.5 37.5t3.5 38.5t31 42.5t61.5 24z" />
    <glyph glyph-name="copyright" unicode="&#xa9;" horiz-adv-x="1399" 
d="M1072 695q0 130 -60 205t-165 75q-143 0 -251 -131t-108 -313q0 -117 56 -197t168 -80q113 0 197 74.5t134 207.5h36l-57 -321h-34q0 66 -15 90q-51 -51 -126.5 -86t-139.5 -35q-154 0 -251.5 101t-97.5 254v23q0 22 7 52q32 177 175.5 303.5t317.5 126.5q67 0 126.5 -33
t95.5 -88q25 21 50 91h34l-56 -319h-36zM846 1198q-228 0 -428.5 -170t-245.5 -414q-8 -42 -8 -102q0 -207 137.5 -344t365.5 -137t429 170.5t244 412.5q10 55 10 105q0 207 -138 343t-366 136zM853 1263q254 0 408 -152t154 -384q0 -53 -10 -113q-48 -270 -270 -459
t-476 -189t-408 152t-154 384q0 53 11 112q48 270 269.5 459.5t475.5 189.5z" />
    <glyph glyph-name="ordfeminine" unicode="&#xaa;" horiz-adv-x="778" 
d="M724 592q33 0 82 46v-47q-27 -29 -66.5 -49.5t-67.5 -20.5q-83 0 -92 92q-38 -43 -92.5 -72t-100.5 -29q-104 0 -162 77t-58 201q0 52 9 97q27 155 137 265.5t240 110.5q68 0 131 -34h115l-98 -551q-3 -14 -3 -50t26 -36zM541 1198q-83 0 -147 -90t-87 -221
q-10 -60 -10 -109q0 -184 126 -184q60 0 114 53.5t69 135.5l63 362q-45 53 -128 53z" />
    <glyph glyph-name="guillemotleft" unicode="&#xab;" horiz-adv-x="1365" 
d="M1179 249l-30 -41l-502 340l621 339l17 -39l-409 -300zM848 140l-36 -38l-595 446l752 445l24 -36l-548 -409z" />
    <glyph glyph-name="logicalnot" unicode="&#xac;" horiz-adv-x="1167" 
d="M995 604l-61 -351h-91l46 261h-679l15 90h770z" />
    <glyph glyph-name="minus" unicode="&#xad;" 
d="M792 425h-597l15 90h597z" />
    <glyph glyph-name="registered" unicode="&#xae;" horiz-adv-x="1399" 
d="M613 342q0 -54 25.5 -71.5t95.5 -17.5l-7 -38h-406l7 38q94 0 127 38t57 177l53 293q14 79 14 129t-26 68t-97 18l7 38h397q113 0 177 -52t64 -138v-18q-3 -14 -4 -21q-15 -87 -86.5 -148.5t-175.5 -75.5l92 -136q114 -174 223 -172q153 157 190 361q10 55 10 105
q0 207 -138 343t-366 136t-428.5 -170t-245.5 -414q-8 -42 -8 -102q0 -207 137.5 -344t352.5 -137q123 0 242.5 48.5t216.5 135.5h-198l-202 343h-70l-17 -90q-13 -72 -13 -126zM790 625q73 0 119.5 45.5t54.5 93.5t9 60q1 54 -31 88t-95 33h-135l-57 -320h135zM853 1263
q254 0 408 -152t154 -384q0 -53 -10 -113q-48 -270 -270 -459t-476 -189t-408 152t-154 384q0 53 11 112q48 270 269.5 459.5t475.5 189.5z" />
    <glyph glyph-name="macron" unicode="&#xaf;" horiz-adv-x="529" 
d="M589 1271h-372l8 48h372z" />
    <glyph glyph-name="degree" unicode="&#xb0;" horiz-adv-x="819" 
d="M553 1132q-82 0 -163 -69.5t-81 -159.5q0 -89 49.5 -138.5t130.5 -49.5t162 70t81 176q0 73 -48.5 122t-130.5 49zM564 1231q120 0 193.5 -72t73.5 -181q0 -160 -118.5 -261t-238.5 -101t-193.5 73.5t-73.5 182.5q0 26 5 51q24 128 128 218t224 90z" />
    <glyph glyph-name="plusminus" unicode="&#xb1;" 
d="M560 550h322l-17 -91h-322l-50 -288h-90l49 288h-321l17 91h321l50 286h90zM800 89l-15 -91h-734l16 91h733z" />
    <glyph glyph-name="twosuperior" unicode="&#xb2;" horiz-adv-x="687" 
d="M592 1080q0 106 -124 106q-51 0 -98 -41.5t-47 -101.5q0 -31 18 -72l-63 -51q-61 49 -61 128t77.5 147t183.5 68t169 -45.5t63 -126.5t-63 -154q-32 -38 -99 -89l-212 -162h326l-36 -99h-478l7 46l314 243q102 72 120 167q3 27 3 37z" />
    <glyph glyph-name="threesuperior" unicode="&#xb3;" horiz-adv-x="687" 
d="M386 553q-102 1 -154 43q-54 42 -54.5 88t47.5 46q14 0 48 -58t109 -58t129 56t50 132q0 46 -23.5 79.5t-69.5 41.5q-5 -5 -11 -10q-12 -12 -29 -36q-26 -34 -56 -34t-29 29q0 22 24 44l241 214h-178q-112 0 -142 -77l-17 -36h-46l75 212h442l-8 -48l-196 -193
q67 -24 105 -72.5t38 -109.5q0 -107 -96.5 -180t-198.5 -73z" />
    <glyph glyph-name="acute" unicode="&#xb4;" horiz-adv-x="464" 
d="M478 1376q29 0 46 -16t12 -47q-5 -32 -58 -59l-304 -119l-7 14l222 179q60 48 89 48z" />
    <glyph glyph-name="mu" unicode="&#xb5;" horiz-adv-x="820" 
d="M618 -26q-91 0 -91 105q0 14 7 54q-46 -79 -109 -123t-121 -44t-89 20l-39 -216q-16 -85 -16 -141t30 -77t107 -21l-9 -43h-438l8 43q102 0 139 43.5t64 195.5l139 781q3 15 3 51t-26 35q-35 0 -81 -46v47q27 29 66 49.5t67 20.5q92 0 92 -106q0 -12 -4 -35l-51 -285
q-10 -55 -10 -98q0 -121 99 -121q58 1 127 85t95 229l54 306h115l-97 -552q-17 -85 22 -85q33 0 82 46v-48q-29 -29 -68.5 -49.5t-66.5 -20.5z" />
    <glyph glyph-name="paragraph" unicode="&#xb6;" horiz-adv-x="1049" 
d="M201 821q0 29 6 60q26 145 146 246.5t263 101.5h480l-7 -43q-126 0 -169 -43.5t-70 -195.5l-179 -1014q-15 -82 -15 -139t35.5 -78t132.5 -21l-7 -43h-271l263 1486h-171l-263 -1486h-271l7 43q126 0 169 43.5t70 194.5l106 603q-113 12 -184 91.5t-71 193.5z" />
    <glyph glyph-name="periodcentered" unicode="&#xb7;" horiz-adv-x="597" 
d="M274 379q-38 0 -60.5 24t-21.5 47q2 23 6 46t36 52t70 29t61.5 -24t23.5 -47q0 -61 -38.5 -94t-76.5 -33z" />
    <glyph glyph-name="periodcentered" unicode="&#x2219;" horiz-adv-x="597" 
d="M274 379q-38 0 -60.5 24t-21.5 47q2 23 6 46t36 52t70 29t61.5 -24t23.5 -47q0 -61 -38.5 -94t-76.5 -33z" />
    <glyph glyph-name="cedilla" unicode="&#xb8;" horiz-adv-x="447" 
d="M261 12q14 5 31 5t37 -12l-134 -136q44 0 80.5 -33.5t36.5 -94.5q0 -95 -87 -161q-87 -65 -199 -82l10 57q152 52 171 153q7 36 -20 58t-65 22t-74 -13l5 29z" />
    <glyph glyph-name="onesuperior" unicode="&#xb9;" horiz-adv-x="687" 
d="M422 1105q0 42 -27.5 56.5t-95.5 14.5l8 43l268 52l-83 -474q-10 -60 -10 -99t19.5 -53t77.5 -14l-7 -44h-352l7 44q77 0 102.5 29t44.5 137l41 225q7 41 7 83z" />
    <glyph glyph-name="ordmasculine" unicode="&#xba;" horiz-adv-x="776" 
d="M297 770q0 -195 133 -195q87 0 148.5 87.5t85.5 224.5q10 60 10 113q0 200 -133 200q-89 0 -149 -86t-77 -193q-18 -106 -18 -151zM430 512q-120 0 -190.5 84.5t-70.5 212.5v48q5 20 7 30q27 154 137.5 265t228.5 111t189 -84.5t71 -214.5q0 -36 -7 -77
q-29 -155 -137 -265t-228 -110z" />
    <glyph glyph-name="guillemotright" unicode="&#xbb;" horiz-adv-x="1365" 
d="M811 548l-622 -340l-17 41l410 299l-304 300l31 39zM1241 548l-753 -446l-25 38l549 408l-404 409l37 36z" />
    <glyph glyph-name="onequarter" unicode="&#xbc;" horiz-adv-x="1546" 
d="M1183 258l42 242l-225 -242h183zM1280 98q0 -54 99 -54l-9 -44h-351l8 44q75 0 101 26t43 119h-285l5 36l437 470h49l-77 -437q44 0 71.5 21t55.5 85l13 34h43l-48 -209h-146q-9 -65 -9 -91zM384 1103q0 42 -24.5 57.5t-93.5 15.5l7 37l256 48l-80 -462q-12 -65 -12 -100
t21.5 -50.5t72.5 -15.5l-5 -37h-335l5 37q68 0 95.5 31t46.5 135l39 223q7 39 7 81zM1352 1231l-1011 -1269l-70 38l1011 1270z" />
    <glyph glyph-name="onehalf" unicode="&#xbd;" horiz-adv-x="1546" 
d="M1079 468q0 -48 18 -84l-64 -51q-61 49 -61 127t77 147t184 69t170 -46t63 -125t-65 -155q-32 -39 -99 -89l-211 -162h326l-36 -99h-478l8 46l314 242q99 70 118 168q3 27 4 37q0 106 -125 106q-51 0 -97 -41.5t-46 -89.5zM384 1103q0 42 -24.5 57.5t-93.5 15.5l7 37
l256 48l-80 -462q-12 -65 -12 -100t21.5 -50.5t72.5 -15.5l-5 -37h-335l5 37q68 0 95.5 31t46.5 135l39 223q7 39 7 81zM1352 1231l-1011 -1269l-70 38l1011 1270z" />
    <glyph glyph-name="threequarters" unicode="&#xbe;" horiz-adv-x="1546" 
d="M386 553q-102 1 -154 43q-54 42 -54.5 88t47.5 46q14 0 48 -58t109 -58t129 56t50 132q0 46 -23.5 79.5t-69.5 41.5q-5 -5 -11 -10q-12 -12 -29 -36q-26 -34 -56 -34t-29 29q0 22 24 44l241 214h-178q-112 0 -142 -77l-17 -36h-46l75 212h442l-8 -48l-196 -193
q67 -24 105 -72.5t38 -109.5q0 -107 -96.5 -180t-198.5 -73zM1183 258l42 242l-225 -242h183zM1280 98q0 -54 99 -54l-9 -44h-351l8 44q75 0 101 26t43 119h-285l5 36l437 470h49l-77 -437q44 0 71.5 21t55.5 85l13 34h43l-48 -209h-146q-9 -65 -9 -91zM1352 1231
l-1011 -1269l-70 38l1011 1270z" />
    <glyph glyph-name="questiondown" unicode="&#xbf;" horiz-adv-x="1006" 
d="M621 382q-1 82 -111 82q-54 0 -128 -44v53q27 19 76.5 36.5t99.5 17.5q50 1 96 -35t47 -108q0 -116 -129 -207l-202 -122q-128 -89 -128 -197q0 -65 48 -109t132 -44t157 51.5t75 151.5q0 22 -19 60l90 41q41 -51 41 -115q0 -120 -108 -198t-239 -78t-216 64t-85 168
q0 155 148 258q7 5 222 119q139 74 133 155zM618 700q-38 0 -62 24t-24 47t4.5 46t39 52t72.5 29t60 -24t22 -47t-6 -46q-4 -23 -36 -52t-70 -29z" />
    <glyph glyph-name="Agrave" unicode="&#xc0;" horiz-adv-x="989" 
d="M660 502l-71 483l-241 -483h312zM166 106q0 -63 122 -63l-6 -43h-378l7 43q84 -1 121 31t94 148l521 1041h39l155 -1041q17 -116 41 -148t110 -31l-7 -43h-435l6 43q82 -1 117 25t35 86l-3 44l-34 229h-362l-114 -229q-29 -61 -29 -92zM700 1394l-12 -13l-261 119
q-43 26 -36 62q3 20 22 40t53 19t75 -47z" />
    <glyph glyph-name="Aacute" unicode="&#xc1;" horiz-adv-x="989" 
d="M660 502l-71 483l-241 -483h312zM166 106q0 -63 122 -63l-6 -43h-378l7 43q84 -1 121 31t94 148l521 1041h39l155 -1041q17 -116 41 -148t110 -31l-7 -43h-435l6 43q82 -1 117 25t35 86l-3 44l-34 229h-362l-114 -229q-29 -61 -29 -92zM872 1621q29 0 46 -15
q17 -16 13 -40q-7 -43 -59 -66l-304 -119l-7 13l222 180q60 47 89 47z" />
    <glyph glyph-name="Acircumflex" unicode="&#xc2;" horiz-adv-x="989" 
d="M660 502l-71 483l-241 -483h312zM166 106q0 -63 122 -63l-6 -43h-378l7 43q84 -1 121 31t94 148l521 1041h39l155 -1041q17 -116 41 -148t110 -31l-7 -43h-435l6 43q82 -1 117 25t35 86l-3 44l-34 229h-362l-114 -229q-29 -61 -29 -92zM876 1406l-31 -24l-191 156
l-246 -156l-21 24l291 265z" />
    <glyph glyph-name="Atilde" unicode="&#xc3;" horiz-adv-x="989" 
d="M660 502l-71 483l-241 -483h312zM166 106q0 -63 122 -63l-6 -43h-378l7 43q84 -1 121 31t94 148l521 1041h39l155 -1041q17 -116 41 -148t110 -31l-7 -43h-435l6 43q82 -1 117 25t35 86l-3 44l-34 229h-362l-114 -229q-29 -61 -29 -92zM800 1487q62 0 106 97h33
q-19 -97 -65 -150t-113 -53q-35 0 -119 56t-112 56t-57 -27t-46 -67h-31q15 87 63 143q49 56 97 57q48 0 128 -56t116 -56z" />
    <glyph glyph-name="Adieresis" unicode="&#xc4;" horiz-adv-x="989" 
d="M660 502l-71 483l-241 -483h312zM166 106q0 -63 122 -63l-6 -43h-378l7 43q84 -1 121 31t94 148l521 1041h39l155 -1041q17 -116 41 -148t110 -31l-7 -43h-435l6 43q82 -1 117 25t35 86l-3 44l-34 229h-362l-114 -229q-29 -61 -29 -92zM821 1543q34 0 53 -23
q18 -23 12 -56q-6 -34 -34 -58t-58 -24t-50 17q-19 17 -19 37t4 40q3 19 30 43q28 24 62 24zM550 1543q34 0 52 -23t13 -56q-6 -34 -34 -58q-29 -24 -59 -24t-49 17t-19 37t3 40q3 19 31 43t62 24z" />
    <glyph glyph-name="Aring" unicode="&#xc5;" horiz-adv-x="989" 
d="M660 502l-71 483l-241 -483h312zM166 106q0 -63 122 -63l-6 -43h-378l7 43q84 0 120.5 31.5t94.5 147.5l521 1041h39l155 -1041q17 -116 41 -147.5t110 -31.5l-7 -43h-435l6 43q82 0 117 25.5t35 85.5l-3 44l-34 229h-362l-114 -229q-29 -61 -29 -92zM735.5 1644
q-39.5 0 -72 -27.5t-39 -67t15.5 -66.5t61.5 -27t72 27t39 66.5t-15.5 67t-61.5 27.5zM744 1719q68 0 107.5 -39.5t39.5 -112.5t-65.5 -129.5t-131.5 -56.5t-107 39t-41 113t65 130t133 56z" />
    <glyph glyph-name="AE" unicode="&#xc6;" horiz-adv-x="1314" 
d="M662 585l91 512l-302 -512h211zM181 94q0 -51 107 -51l-6 -43h-378l7 43q84 0 131.5 36.5t111.5 142.5l597 1007h587l-34 -272h-33v41q-1 90 -27 123t-124 33h-226l-100 -569h75q116 0 154.5 34.5t60.5 162.5h32l-83 -468h-33q12 60 12 110t-32.5 68t-122.5 18h-75
l-36 -196q-17 -95 -17 -147t26.5 -72t96.5 -20h129q101 -1 137 31t70 124l13 41h33l-62 -271h-762l6 43q97 0 131.5 42.5t61.5 196.5l41 228h-242l-186 -312q-41 -70 -41 -104z" />
    <glyph glyph-name="Ccedilla" unicode="&#xc7;" horiz-adv-x="1105" 
d="M538 -259q0 -94 -88 -160t-199 -83l10 57q152 52 171 153q7 36 -19.5 58t-64.5 22t-75 -13l5 29l174 176q-126 36 -203 169t-77 315q0 68 14 150q48 268 219.5 458.5t365.5 190.5q166 0 256 -174q30 25 64 118h42l-80 -451h-43q0 203 -63 315t-186 112q-154 0 -276 -188
q-106 -160 -145 -381q-15 -85 -16 -174q0 -166 59 -280t181 -114t227 113.5t170 313.5h43l-81 -451h-42q0 97 -21 118q-155 -174 -317 -174l-26 2l-97 -99q44 0 81 -33.5t37 -94.5z" />
    <glyph glyph-name="Egrave" unicode="&#xc8;" horiz-adv-x="918" 
d="M638 517q0 58 -34 77t-123 19h-75l-53 -299q-17 -95 -17 -147t26 -72t97 -20h130q101 -1 137 31t69 124l14 41h32l-61 -271h-763l7 43q97 1 131 43t62 196l118 665q35 187 -9 220q-26 20 -99 19l7 43h711l-34 -272h-32v41q-1 90 -27 123t-125 33h-225l-82 -466h75
q116 0 154 34t59 162h33l-82 -468h-33q12 91 12 101zM707 1394l-12 -13l-262 119q-42 25 -35 62q3 20 22 40t53 19t75 -47z" />
    <glyph glyph-name="Eacute" unicode="&#xc9;" horiz-adv-x="918" 
d="M638 517q0 58 -34 77t-123 19h-75l-53 -299q-17 -95 -17 -147t26 -72t97 -20h130q101 -1 137 31t69 124l14 41h32l-61 -271h-763l7 43q97 1 131 43t62 196l118 665q35 187 -9 220q-26 20 -99 19l7 43h711l-34 -272h-32v41q-1 90 -27 123t-125 33h-225l-82 -466h75
q116 0 154 34t59 162h33l-82 -468h-33q12 91 12 101zM860 1623q29 1 46 -15t13 -40q-7 -42 -59 -66l-304 -120l-6 14l221 179q60 48 89 48z" />
    <glyph glyph-name="Ecircumflex" unicode="&#xca;" horiz-adv-x="918" 
d="M638 517q0 58 -34 77t-123 19h-75l-53 -299q-17 -95 -17 -147t26 -72t97 -20h130q101 -1 137 31t69 124l14 41h32l-61 -271h-763l7 43q97 1 131 43t62 196l118 665q35 187 -9 220q-26 20 -99 19l7 43h711l-34 -272h-32v41q-1 90 -27 123t-125 33h-225l-82 -466h75
q116 0 154 34t59 162h33l-82 -468h-33q12 91 12 101zM865 1406l-30 -24l-192 156l-245 -156l-21 24l290 265z" />
    <glyph glyph-name="Edieresis" unicode="&#xcb;" horiz-adv-x="918" 
d="M638 517q0 58 -34 77t-123 19h-75l-53 -299q-17 -95 -17 -147t26 -72t97 -20h130q101 -1 137 31t69 124l14 41h32l-61 -271h-763l7 43q97 1 131 43t62 196l118 665q35 187 -9 220q-26 20 -99 19l7 43h711l-34 -272h-32v41q-1 90 -27 123t-125 33h-225l-82 -466h75
q116 0 154 34t59 162h33l-82 -468h-33q12 91 12 101zM809 1541q34 0 53 -23t13 -56t-34 -57t-59 -24t-50 17q-19 18 -19 38t4 39q3 19 31 43t61 23zM538 1541q34 0 53 -23t13 -56t-35 -57t-59 -24t-49 17q-19 18 -19 38t3 39t31 43t62 23z" />
    <glyph glyph-name="Igrave" unicode="&#xcc;" horiz-adv-x="566" 
d="M331 135q1 -53 27 -73t96 -19l-7 -43h-430l7 43q97 1 131 43t62 196l118 665q35 187 -9 220q-26 20 -99 19l7 43h430l-7 -43q-96 0 -130 -43t-61 -196l-118 -665q-17 -94 -17 -147zM505 1394l-12 -13l-261 119q-41 25 -37 53q4 29 23 49t54 19t74 -47z" />
    <glyph glyph-name="Iacute" unicode="&#xcd;" horiz-adv-x="566" 
d="M331 135q1 -53 27 -73t96 -19l-7 -43h-430l7 43q97 1 131 43t62 196l118 665q35 187 -9 220q-26 20 -99 19l7 43h430l-7 -43q-96 0 -130 -43t-61 -196l-118 -665q-17 -94 -17 -147zM661 1621q29 0 46 -15q17 -16 13 -40q-7 -44 -60 -66l-303 -119l-7 13l222 180
q60 47 89 47z" />
    <glyph glyph-name="Icircumflex" unicode="&#xce;" horiz-adv-x="566" 
d="M331 135q1 -53 27 -73t96 -19l-7 -43h-430l7 43q97 1 131 43t62 196l118 665q35 187 -9 220q-26 20 -99 19l7 43h430l-7 -43q-96 0 -130 -43t-61 -196l-118 -665q-17 -94 -17 -147zM659 1406l-31 -24l-191 156l-246 -156l-20 24l290 265z" />
    <glyph glyph-name="Idieresis" unicode="&#xcf;" horiz-adv-x="566" 
d="M331 135q1 -53 27 -73t96 -19l-7 -43h-430l7 43q97 1 131 43t62 196l118 665q35 187 -9 220q-26 20 -99 19l7 43h430l-7 -43q-96 0 -130 -43t-61 -196l-118 -665q-17 -94 -17 -147zM601 1541q34 0 53 -23q18 -23 12 -56t-34 -57t-58 -24t-50 17q-19 18 -19 38t4 39
q3 19 31 43t61 23zM329 1541q34 0 53 -23t13 -56t-34 -57t-59 -24q-32 0 -50 17q-18 18 -18 38t3 39t31 43t61 23z" />
    <glyph glyph-name="Eth" unicode="&#xd0;" horiz-adv-x="1138" 
d="M352 1094q0 53 -26.5 72.5t-98.5 19.5l7 43h428q212 0 315 -121t103 -326q0 -80 -15 -168q-47 -270 -205 -442t-415 -172h-428l7 43q97 0 131 42.5t62 196.5l51 291h-184l17 91h182l52 283q17 94 17 147zM326 167q0 -52 26.5 -72t96.5 -20q378 0 473 539q19 99 18 193
q0 157 -66 252t-232 95h-150l-88 -490h171l-17 -91h-169l-46 -259q-17 -95 -17 -147z" />
    <glyph glyph-name="Ntilde" unicode="&#xd1;" horiz-adv-x="1252" 
d="M1271 1263q63 0 94 -39t25 -75t-20 -52q-15 -15 -42 -15q-38 0 -46 50t-48 49q-38 0 -72 -62t-66 -242l-162 -911h-36l-441 1038l-114 -647q-39 -227 -99 -309t-155 -82q-61 0 -92 39t-25 75t20 51q15 15 42 16q38 1 46 -49t48 -50q39 0 73 62q33 62 65 242l106 595
q17 95 17 147q0 53 -26 73t-98 19l6 43h244l401 -942l103 585q39 227 99 309t153 82zM939 1487q63 0 105 97h33q-19 -97 -65 -150t-113 -53q-35 0 -119 56t-112 56t-57 -27t-46 -67h-31q15 87 63 143t97 57q49 0 129 -56t116 -56z" />
    <glyph glyph-name="Ograve" unicode="&#xd2;" horiz-adv-x="1285" 
d="M799 1183q-174 0 -304 -188q-111 -159 -150 -381q-15 -82 -16 -169q0 -172 60 -276q70 -123 210 -123q176 0 306 188q107 156 146 380q15 85 16 174q0 169 -65 282t-203 113zM584 -34q-183 0 -296 144t-114 366q0 72 12 138q48 268 231 458t395 191q183 0 296 -143
t114 -364q0 -75 -12 -142q-46 -266 -230 -457t-396 -191zM867 1394l-12 -13l-261 119q-41 25 -37 53q4 29 23 49q40 42 98 1q14 -10 30 -29z" />
    <glyph glyph-name="Oacute" unicode="&#xd3;" horiz-adv-x="1285" 
d="M799 1183q-174 0 -304 -188q-111 -159 -150 -381q-15 -82 -16 -169q0 -172 60 -276q70 -123 210 -123q176 0 306 188q107 156 146 380q15 85 16 174q0 169 -65 282t-203 113zM584 -34q-183 0 -296 144t-114 366q0 72 12 138q48 268 231 458t395 191q183 0 296 -143
t114 -364q0 -75 -12 -142q-46 -266 -230 -457t-396 -191zM1007 1621q29 0 46 -15q17 -16 13 -40q-7 -43 -59 -66l-304 -119l-7 13l222 180q60 47 89 47z" />
    <glyph glyph-name="Ocircumflex" unicode="&#xd4;" horiz-adv-x="1285" 
d="M799 1183q-174 0 -304 -188q-111 -159 -150 -381q-15 -82 -16 -169q0 -172 60 -276q70 -123 210 -123q176 0 306 188q107 156 146 380q15 85 16 174q0 169 -65 282t-203 113zM584 -34q-183 0 -296 144t-114 366q0 72 12 138q48 268 231 458t395 191q183 0 296 -143
t114 -364q0 -75 -12 -142q-46 -266 -230 -457t-396 -191zM1038 1405l-31 -24l-191 155l-246 -155l-20 24l290 264z" />
    <glyph glyph-name="Otilde" unicode="&#xd5;" horiz-adv-x="1285" 
d="M799 1183q-174 0 -304 -188q-111 -159 -150 -381q-15 -82 -16 -169q0 -172 60 -276q70 -123 210 -123q176 0 306 188q107 156 146 380q15 85 16 174q0 169 -65 282t-203 113zM584 -34q-183 0 -296 144t-114 366q0 72 12 138q48 268 231 458t395 191q183 0 296 -143
t114 -364q0 -75 -12 -142q-46 -266 -230 -457t-396 -191zM959 1487q62 0 106 97h32q-19 -97 -65 -150t-112 -53q-36 0 -120 56t-112 56t-56 -27q-30 -27 -47 -67h-30q15 87 63 143t96 57q48 0 129 -56q80 -56 116 -56z" />
    <glyph glyph-name="Odieresis" unicode="&#xd6;" horiz-adv-x="1285" 
d="M799 1183q-174 0 -304 -188q-111 -159 -150 -381q-15 -82 -16 -169q0 -172 60 -276q70 -123 210 -123q176 0 306 188q107 156 146 380q15 85 16 174q0 169 -65 282t-203 113zM584 -34q-183 0 -296 144t-114 366q0 72 12 138q48 268 231 458t395 191q183 0 296 -143
t114 -364q0 -75 -12 -142q-46 -266 -230 -457t-396 -191zM949 1541q34 0 53 -23q18 -23 12 -56t-34 -57t-58 -24t-50 17q-19 18 -19 38t4 39q3 19 31 43t61 23zM678 1541q34 0 52 -23t13 -56q-6 -33 -34 -57q-29 -24 -59 -24t-49 17q-19 18 -19 38t3 39t31 43t62 23z" />
    <glyph glyph-name="multiply" unicode="&#xd7;" horiz-adv-x="0" 
 />
    <glyph glyph-name="Oslash" unicode="&#xd8;" horiz-adv-x="1285" 
d="M1224 754q0 -63 -14 -140q-46 -266 -230.5 -457t-395.5 -191q-135 0 -232 82l-87 -135l-50 36l90 141q-60 68 -95.5 170t-35.5 195q0 365 213.5 586.5t424.5 221.5q116 0 209 -63l75 118l49 -38l-77 -118q156 -150 156 -408zM799 1183q-174 0 -306 -188
q-109 -157 -150 -381q-14 -87 -14 -201t45 -217l592 920q-67 67 -167 67zM1068 786q0 175 -61 279l-597 -927q68 -92 189 -92q176 0 306 188q109 159 148 380q15 86 15 172z" />
    <glyph glyph-name="Ugrave" unicode="&#xd9;" horiz-adv-x="1192" 
d="M236 323q0 68 11 134l88 490q35 187 -9 220q-26 20 -97 19l7 43h428l-7 -43q-96 0 -130 -43t-61 -196l-89 -502q-12 -65 -12 -126q0 -129 59 -195q60 -66 170 -66t202 98t124 289l89 502q17 95 17 147q0 53 -26 73t-97 19l7 43h382l-7 -43q-96 0 -130 -43t-61 -196
l-87 -490q-41 -232 -173 -362q-132 -129 -283 -129t-233 93t-82 264zM806 1394l-12 -13l-262 119q-42 25 -35 62q3 20 22 40t53 19t75 -47z" />
    <glyph glyph-name="Uacute" unicode="&#xda;" horiz-adv-x="1192" 
d="M236 323q0 68 11 134l88 490q35 187 -9 220q-26 20 -97 19l7 43h428l-7 -43q-96 0 -130 -43t-61 -196l-89 -502q-12 -65 -12 -126q0 -129 59 -195q60 -66 170 -66t202 98t124 289l89 502q17 95 17 147q0 53 -26 73t-97 19l7 43h382l-7 -43q-96 0 -130 -43t-61 -196
l-87 -490q-41 -232 -173 -362q-132 -129 -283 -129t-233 93t-82 264zM999 1621q29 0 45 -15q16 -16 13 -40q-7 -44 -59 -66l-303 -119l-7 13l222 180q60 47 89 47z" />
    <glyph glyph-name="Ucircumflex" unicode="&#xdb;" horiz-adv-x="1192" 
d="M236 323q0 68 11 134l88 490q35 187 -9 220q-26 20 -97 19l7 43h428l-7 -43q-96 0 -130 -43t-61 -196l-89 -502q-12 -65 -12 -126q0 -129 59 -195q60 -66 170 -66t202 98t124 289l89 502q17 95 17 147q0 53 -26 73t-97 19l7 43h382l-7 -43q-96 0 -130 -43t-61 -196
l-87 -490q-41 -232 -173 -362q-132 -129 -283 -129t-233 93t-82 264zM993 1406l-30 -24l-192 156l-245 -156l-21 24l290 265z" />
    <glyph glyph-name="Udieresis" unicode="&#xdc;" horiz-adv-x="1192" 
d="M236 323q0 68 11 134l88 490q35 187 -9 220q-26 20 -97 19l7 43h428l-7 -43q-96 0 -130 -43t-61 -196l-89 -502q-12 -65 -12 -126q0 -129 59 -195q60 -66 170 -66t202 98t124 289l89 502q17 95 17 147q0 53 -26 73t-97 19l7 43h382l-7 -43q-96 0 -130 -43t-61 -196
l-87 -490q-41 -232 -173 -362q-132 -129 -283 -129t-233 93t-82 264zM947 1543q34 0 53 -23t13 -56q-6 -34 -34 -58t-59 -24t-50 17q-18 17 -18 37t3 40q3 19 31 43t61 24zM676 1543q34 0 53 -23t13 -56q-6 -34 -35 -58t-59 -24t-49 17t-19 37t4 40q3 19 30 43q28 24 62 24z
" />
    <glyph glyph-name="Yacute" unicode="&#xdd;" horiz-adv-x="955" 
d="M509 135q0 -53 26 -73t96 -19l-6 -43h-434l7 43q97 1 131 43t62 196l19 102q39 230 39 413q1 183 -49 281t-120 100q-22 0 -53 -16t-46 -32v48q32 36 76 54t81 17q118 1 167 -135t50 -469q106 294 198 434q111 169 232 169q56 0 87 -32t31 -71q-1 -39 -19 -58
q-18 -20 -45 -20q-35 0 -49 49t-53 50q-89 0 -219 -272t-172 -501l-20 -111q-17 -94 -17 -147zM924 1623q30 1 46 -15t12 -40q-7 -42 -59 -66l-303 -120l-7 14l222 179q60 48 89 48z" />
    <glyph glyph-name="Thorn" unicode="&#xde;" horiz-adv-x="754" 
d="M447 717q111 0 182 -84.5t71 -212.5v-48q-5 -20 -7 -31q-27 -159 -123 -267t-222 -108q-97 0 -153 94l-52 -290q-15 -85 -15 -141t30 -77t107 -21l-9 -43h-439l9 43q102 0 139 43.5t64 195.5l205 1160q19 91 19 147t-21.5 74t-76.5 18l7 43l244 51l-101 -580
q72 34 142 34zM446 652q-92 0 -156 -53l-63 -362q-3 -12 -3 -15v-29q0 -65 33 -105t84 -40q84 0 140 81t83 229t-17 221t-101 73z" />
    <glyph glyph-name="germandbls" unicode="&#xdf;" horiz-adv-x="856" 
d="M749 1087q0 40 -30 74.5t-81 34.5q-182 0 -237 -317l-194 -1097q-31 -172 -101 -250t-157 -78q-86 0 -128.5 40t-42.5 90q0 73 68 73q41 0 48 -71.5t65 -71.5q46 0 77 60.5t56 207.5l147 827h-162l7 43q104 0 140.5 40t62.5 185q33 196 141 291t244 95q96 0 149 -58
t53 -145q0 -32 -4 -48q-17 -94 -153.5 -237.5t-151.5 -230.5q0 -46 65 -107l73 -70q72 -67 72 -160q0 -10 -4 -31q-17 -98 -85 -154t-150 -56t-130 40t-48 88t52 58q34 5 46 -34q26 -92 104 -92q49 0 82 37t32 79q-4 77 -63 131l-73 70q-29 27 -49.5 73t-20.5 76t1 39
q14 79 181 298q79 105 94 192q5 26 5 66z" />
    <glyph glyph-name="agrave" unicode="&#xe0;" horiz-adv-x="778" 
d="M290 -34q-106 0 -163 77t-57 201q0 33 9 97q29 155 139 265t239 111q68 0 132 -34h114l-97 -552q-17 -85 22 -85q17 0 42 15t40 31v-48q-29 -29 -68 -49t-67 -21q-84 0 -90 93q-39 -45 -94 -73t-101 -28zM442 652q-82 0 -145 -90q-97 -138 -97 -344q0 -68 32 -119t94 -51
t116 54t68 135l63 362q-49 53 -131 53zM380 1077q33 0 76 -48l158 -179l-12 -14l-261 120q-41 25 -37 53t24 48t52 20z" />
    <glyph glyph-name="aacute" unicode="&#xe1;" horiz-adv-x="778" 
d="M290 -34q-106 0 -163 77t-57 201q0 33 9 97q29 155 139 265t239 111q68 0 132 -34h114l-97 -552q-17 -85 22 -85q17 0 42 15t40 31v-48q-29 -29 -68 -49t-67 -21q-84 0 -90 93q-39 -45 -94 -73t-101 -28zM442 652q-82 0 -145 -90q-97 -138 -97 -344q0 -68 32 -119t94 -51
t116 54t68 135l63 362q-49 53 -131 53zM780 1077q29 1 46 -15t13 -40q-7 -42 -59 -66l-304 -120l-7 14l222 179q60 48 89 48z" />
    <glyph glyph-name="acircumflex" unicode="&#xe2;" horiz-adv-x="778" 
d="M290 -34q-106 0 -163 77t-57 201q0 33 9 97q29 155 139 265t239 111q68 0 132 -34h114l-97 -552q-17 -85 22 -85q17 0 42 15t40 31v-48q-29 -29 -68 -49t-67 -21q-84 0 -90 93q-39 -45 -94 -73t-101 -28zM442 652q-82 0 -145 -90q-97 -138 -97 -344q0 -68 32 -119t94 -51
t116 54t68 135l63 362q-49 53 -131 53zM732 860l-31 -24l-191 156l-245 -156l-21 24l290 265z" />
    <glyph glyph-name="atilde" unicode="&#xe3;" horiz-adv-x="778" 
d="M290 -34q-106 0 -163 77t-57 201q0 33 9 97q29 155 139 265t239 111q68 0 132 -34h114l-97 -552q-17 -85 22 -85q17 0 42 15t40 31v-48q-29 -29 -68 -49t-67 -21q-84 0 -90 93q-39 -45 -94 -73t-101 -28zM442 652q-82 0 -145 -90q-97 -138 -97 -344q0 -68 32 -119t94 -51
t116 54t68 135l63 362q-49 53 -131 53zM657 942q61 0 106 97h32q-19 -97 -65 -150t-112 -53q-36 0 -120 56t-112 57q-28 0 -56 -27q-30 -27 -47 -67h-30q15 87 63 143t96 56t129 -56q80 -56 116 -56z" />
    <glyph glyph-name="adieresis" unicode="&#xe4;" horiz-adv-x="778" 
d="M290 -34q-106 0 -163 77t-57 201q0 33 9 97q29 155 139 265t239 111q68 0 132 -34h114l-97 -552q-17 -85 22 -85q17 0 42 15t40 31v-48q-29 -29 -68 -49t-67 -21q-84 0 -90 93q-39 -45 -94 -73t-101 -28zM442 652q-82 0 -145 -90q-97 -138 -97 -344q0 -68 32 -119t94 -51
t116 54t68 135l63 362q-49 53 -131 53zM689 997q34 0 53 -23q19 -22 13 -56t-34 -58t-59 -24q-32 0 -50 17t-18 37t3 40q3 19 31 43t61 24zM418 997q34 0 53 -23q19 -22 13 -56t-34 -58t-59 -24t-50 17t-19 37t4 40q2 19 30 43t62 24z" />
    <glyph glyph-name="aring" unicode="&#xe5;" horiz-adv-x="778" 
d="M290 -34q-106 0 -163 77t-57 201q0 33 9 97q29 155 139 265t239 111q68 0 132 -34h114l-97 -552q-17 -85 22 -85q17 0 42 15t40 31v-48q-29 -29 -68 -49t-67 -21q-84 0 -90 93q-39 -45 -94 -73t-101 -28zM442 652q-82 0 -145 -90q-97 -138 -97 -344q0 -68 32 -119t94 -51
t116 54t68 135l63 362q-49 53 -131 53zM560 1097q-40 0 -72 -27t-39 -66q-7 -38 15 -66t62 -28t71 27t39 67t-14 66q-22 27 -62 27zM370 987q0 74 66 129q66 56 132 56q68 0 108 -39t39 -113q1 -74 -65 -129q-66 -56 -132 -56t-107 39t-41 113z" />
    <glyph glyph-name="ae" unicode="&#xe6;" horiz-adv-x="1025" 
d="M864 552v9q0 73 -62 74q-73 0 -133.5 -79.5t-84.5 -215.5l-5 -33q125 29 197 95t86 136q2 7 2 14zM174 146v-9q0 -72 68 -72q54 0 112 52t97 146l18 109q-137 -34 -209 -82t-84 -130q-2 -7 -2 -14zM736 48q39 0 92 26.5t94 67.5l18 -41q-49 -58 -121.5 -96.5
t-147.5 -38.5t-132 55.5t-76 147.5q-53 -95 -131 -145t-146 -50q-67 0 -102 35t-35 99q0 238 432 329q14 79 14 125t-19.5 67t-65.5 21t-85.5 -25.5t-46.5 -64t-27.5 -59t-42.5 -20.5t-35.5 16.5t-12.5 33.5t0 22q12 70 86 117t158 47t129.5 -27.5t57.5 -88.5
q108 116 225 116q70 0 111.5 -40t41.5 -105q1 -105 -109 -195q-110 -89 -287 -126q0 -203 163 -203z" />
    <glyph glyph-name="ccedilla" unicode="&#xe7;" horiz-adv-x="597" 
d="M338 48q91 0 181 94l19 -41q-53 -61 -119 -98t-129 -37l-95 -97q44 0 80.5 -33.5t36.5 -94.5q0 -95 -87 -161q-87 -65 -199 -82l10 57q152 52 171 153q7 36 -20 58t-65 22t-74 -13l5 29l169 169q-75 20 -115 87.5t-40 169.5q0 40 8 94q31 171 136 282t200 111
q95 1 135 -43t32 -88t-27.5 -58t-48.5 -14q-43 0 -50 69t-48 69q-58 0 -120 -88t-89 -240q-9 -55 -9 -90q0 -186 152 -186z" />
    <glyph glyph-name="egrave" unicode="&#xe8;" horiz-adv-x="640" 
d="M350 48q39 0 92 26t94 68l19 -41q-49 -59 -122 -97t-136 -38q-107 0 -167 79t-60 206q0 39 9 90q29 159 134 267q106 108 217 109q70 0 112 -40t42 -105q0 -105 -110 -194t-286 -127q0 -203 162 -203zM478 552v9q0 73 -62 74q-73 0 -134 -79t-84 -216l-5 -33
q125 29 197 95t86 136q2 7 2 14zM327 1077q33 0 76 -48l158 -179l-11 -14l-262 120q-42 25 -37 53t24 48t52 20z" />
    <glyph glyph-name="eacute" unicode="&#xe9;" horiz-adv-x="640" 
d="M350 48q39 0 92 26t94 68l19 -41q-49 -59 -122 -97t-136 -38q-107 0 -167 79t-60 206q0 39 9 90q29 159 134 267q106 108 217 109q70 0 112 -40t42 -105q0 -105 -110 -194t-286 -127q0 -203 162 -203zM478 552v9q0 73 -62 74q-73 0 -134 -79t-84 -216l-5 -33
q125 29 197 95t86 136q2 7 2 14zM640 1077q29 1 46 -15t13 -40q-7 -42 -59 -66l-304 -120l-7 14l222 179q60 48 89 48z" />
    <glyph glyph-name="ecircumflex" unicode="&#xea;" horiz-adv-x="640" 
d="M350 48q39 0 92 26t94 68l19 -41q-49 -59 -122 -97t-136 -38q-107 0 -167 79t-60 206q0 39 9 90q29 159 134 267q106 108 217 109q70 0 112 -40t42 -105q0 -105 -110 -194t-286 -127q0 -203 162 -203zM478 552v9q0 73 -62 74q-73 0 -134 -79t-84 -216l-5 -33
q125 29 197 95t86 136q2 7 2 14zM695 860l-31 -24l-191 156l-246 -156l-20 24l290 265z" />
    <glyph glyph-name="edieresis" unicode="&#xeb;" horiz-adv-x="640" 
d="M350 48q39 0 92 26t94 68l19 -41q-49 -59 -122 -97t-136 -38q-107 0 -167 79t-60 206q0 39 9 90q29 159 134 267q106 108 217 109q70 0 112 -40t42 -105q0 -105 -110 -194t-286 -127q0 -203 162 -203zM478 552v9q0 73 -62 74q-73 0 -134 -79t-84 -216l-5 -33
q125 29 197 95t86 136q2 7 2 14zM604 997q34 0 53 -23q19 -22 13 -56t-34 -58t-59 -24t-50 17t-19 37t4 40q2 19 30 43t62 24zM333 997q34 0 53 -23q18 -22 12 -56t-34 -58t-58 -24t-50 17q-19 17 -19 37t4 40q3 19 30 43q28 24 62 24z" />
    <glyph glyph-name="igrave" unicode="&#xec;" horiz-adv-x="421" 
d="M203 602q0 36 -26 35q-35 0 -81 -46v47q27 30 66 50t67 20q92 0 92 -106q0 -12 -4 -35l-76 -436q-17 -85 22 -85q17 0 42 15t40 31v-48q-29 -29 -69 -49t-66 -21q-89 0 -91 105q0 10 4 37l77 435q3 15 3 51zM110 1070q33 0 76 -48l159 -179l-12 -14l-261 120
q-70 42 -14 101q19 20 52 20z" />
    <glyph glyph-name="iacute" unicode="&#xed;" horiz-adv-x="421" 
d="M203 602q0 36 -26 35q-35 0 -81 -46v47q27 30 66 50t67 20q92 0 92 -106q0 -12 -4 -35l-76 -436q-17 -85 22 -85q17 0 42 15t40 31v-48q-29 -29 -69 -49t-66 -21q-89 0 -91 105q0 10 4 37l77 435q3 15 3 51zM521 1077q29 1 46 -15t13 -40q-7 -42 -59 -66l-304 -120l-7 14
l222 179q60 48 89 48z" />
    <glyph glyph-name="icircumflex" unicode="&#xee;" horiz-adv-x="421" 
d="M203 602q0 36 -26 35q-35 0 -81 -46v47q27 30 66 50t67 20q92 0 92 -106q0 -12 -4 -35l-76 -436q-17 -85 22 -85q17 0 42 15t40 31v-48q-29 -29 -69 -49t-66 -21q-89 0 -91 105q0 10 4 37l77 435q3 15 3 51zM514 858l-31 -23l-191 155l-246 -155l-20 23l290 265z" />
    <glyph glyph-name="idieresis" unicode="&#xef;" horiz-adv-x="421" 
d="M203 602q0 36 -26 35q-35 0 -81 -46v47q27 30 66 50t67 20q92 0 92 -106q0 -12 -4 -35l-76 -436q-17 -85 22 -85q17 0 42 15t40 31v-48q-29 -29 -69 -49t-66 -21q-89 0 -91 105q0 10 4 37l77 435q3 15 3 51zM422 997q34 0 52 -23q18 -22 13 -56q-6 -34 -34 -58
q-29 -24 -59 -24t-49 17t-19 37t3 40q3 19 31 43t62 24zM150 997q34 0 53 -23q19 -22 13 -56t-34 -58t-59 -24t-50 17t-19 37t4 40q2 19 30 43t62 24z" />
    <glyph glyph-name="eth" unicode="&#xf0;" horiz-adv-x="1000" 
d="M930 766q0 -111 -20 -222q-56 -317 -217 -467q-119 -111 -258 -111t-225.5 90.5t-86.5 225.5l7 68q27 159 156 271.5t284 112.5q75 0 132 -34t83 -87q17 119 17 241t-32 213l-277 -183l-46 58l290 191q-49 70 -133 70t-157 -71.5t-87 -71.5t-30 12.5t-16 33.5
q0 52 93 108t210 56t194 -87l215 140l47 -58l-220 -144q77 -132 77 -355zM555 652q-114 0 -192 -89t-100 -211q-3 -31 -5 -46.5t-2 -29.5q0 -101 47 -164.5t137 -63.5t162 75q113 116 166 377q0 63 -65 107.5t-148 44.5z" />
    <glyph glyph-name="ntilde" unicode="&#xf1;" horiz-adv-x="820" 
d="M621 942q61 0 106 97h32q-19 -97 -65 -150t-112 -53q-36 0 -120 56t-111 57q-28 0 -57 -27t-47 -67h-30q15 87 63 143t96 56t129 -56q80 -56 116 -56zM551 717q154 0 156 -200q0 -49 -11 -106l-47 -280q-17 -85 22 -85q17 0 42 15t40 31v-48q-29 -29 -69 -49
q-90 -45 -134 7q-23 27 -23 57t4 57l49 285q25 141 -12 189q-22 30 -78 30t-124 -84q-69 -84 -95 -231l-54 -305h-115l98 551q3 15 3 51t-26 35q-35 0 -81 -46v47q27 30 66 50t67 20q92 0 92 -106q0 -12 -7 -52q46 77 108 122t129 45z" />
    <glyph glyph-name="ograve" unicode="&#xf2;" horiz-adv-x="776" 
d="M445 654q-89 0 -148 -86t-77 -188q-18 -100 -18 -172t32 -126q32 -53 110 -53t138 86q90 130 97 342q0 197 -134 197zM332 -34q-118 0 -189 84t-71 215v31q0 13 7 45q27 154 138 265t231 111q120 -1 188 -85q69 -84 69 -212v-48q-5 -21 -7 -31q-27 -155 -137 -265
q-111 -110 -229 -110zM551 853l-12 -13l-261 119q-41 25 -37 53q3 29 23 49t54 19t75 -47z" />
    <glyph glyph-name="oacute" unicode="&#xf3;" horiz-adv-x="776" 
d="M445 654q-89 0 -148 -86t-77 -188q-18 -100 -18 -172t32 -126q32 -53 110 -53t138 86q90 130 97 342q0 197 -134 197zM332 -34q-118 0 -189 84t-71 215v31q0 13 7 45q27 154 138 265t231 111q120 -1 188 -85q69 -84 69 -212v-48q-5 -21 -7 -31q-27 -155 -137 -265
q-111 -110 -229 -110zM690 1077q29 1 46 -15t13 -40q-7 -42 -60 -66l-303 -120l-7 14l222 179q60 48 89 48z" />
    <glyph glyph-name="ocircumflex" unicode="&#xf4;" horiz-adv-x="776" 
d="M445 654q-89 0 -148 -86t-77 -188q-18 -100 -18 -172t32 -126q32 -53 110 -53t138 86q90 130 97 342q0 197 -134 197zM332 -34q-118 0 -189 84t-71 215v31q0 13 7 45q27 154 138 265t231 111q120 -1 188 -85q69 -84 69 -212v-48q-5 -21 -7 -31q-27 -155 -137 -265
q-111 -110 -229 -110zM712 860l-31 -24l-191 156l-246 -156l-20 24l290 265z" />
    <glyph glyph-name="otilde" unicode="&#xf5;" horiz-adv-x="776" 
d="M445 654q-89 0 -148 -86t-77 -188q-18 -100 -18 -172t32 -126q32 -53 110 -53t138 86q90 130 97 342q0 197 -134 197zM332 -34q-118 0 -189 84t-71 215v31q0 13 7 45q27 154 138 265t231 111q120 -1 188 -85q69 -84 69 -212v-48q-5 -21 -7 -31q-27 -155 -137 -265
q-111 -110 -229 -110zM620 942q62 0 105 97h33q-19 -97 -65 -150t-113 -53q-36 0 -120 56t-111 57q-28 0 -57 -27t-46 -67h-31q15 87 63 143t97 56t129 -56t116 -56z" />
    <glyph glyph-name="odieresis" unicode="&#xf6;" horiz-adv-x="776" 
d="M445 654q-89 0 -148 -86t-77 -188q-18 -100 -18 -172t32 -126q32 -53 110 -53t138 86q90 130 97 342q0 197 -134 197zM332 -34q-118 0 -189 84t-71 215v31q0 13 7 45q27 154 138 265t231 111q120 -1 188 -85q69 -84 69 -212v-48q-5 -21 -7 -31q-27 -155 -137 -265
q-111 -110 -229 -110zM621 997q34 0 53 -23q19 -22 13 -56t-34 -58t-59 -24t-50 17q-18 17 -18 37t3 40q3 19 31 43t61 24zM350 997q34 0 53 -23q19 -22 13 -56t-35 -58t-59 -24t-49 17t-19 37t4 40q3 19 30 43q28 24 62 24z" />
    <glyph glyph-name="divide" unicode="&#xf7;" 
d="M534 652q-38 0 -60 24t-22 47t4.5 46t37 52t72.5 29t65 -30t17 -70t-42 -69t-72 -29zM436 90q-38 0 -60.5 24t-22.5 47t4.5 46t37 52t72.5 29t65 -30t17 -70t-41.5 -69t-71.5 -29zM792 425h-597l15 90h597z" />
    <glyph glyph-name="oslash" unicode="&#xf8;" horiz-adv-x="788" 
d="M72 265v22q0 22 7 54q27 154 138 265t239 111q70 0 124 -34l57 87l47 -38l-58 -89q79 -84 79 -225q0 -197 -127 -324.5t-255 -127.5q-61 0 -115 29l-53 -82l-47 36l51 82q-87 87 -87 234zM445 654q-89 0 -154 -96t-78 -201t-13 -149t15 -90l319 495q-32 41 -89 41z
M335 29q87 0 147 86q98 141 97 357q0 40 -12 78l-316 -489q32 -32 84 -32z" />
    <glyph glyph-name="ugrave" unicode="&#xf9;" horiz-adv-x="820" 
d="M256 184q0 -121 99 -121q58 1 127 85t95 229l54 306h115l-97 -552q-17 -85 22 -85q17 0 42 15t40 31v-48q-29 -29 -69 -49q-90 -45 -134 7q-23 27 -23 59t7 72q-46 -79 -109 -123t-130 -44q-155 0 -155 200q0 49 10 105l50 280q3 15 3 51t-26 35q-35 0 -81 -46v47
q27 30 66 50t67 20q92 0 92 -106q0 -12 -4 -35l-51 -285q-10 -55 -10 -98zM568 848l-12 -13l-261 119q-41 25 -37 53q4 29 24 49t52 19q33 -1 76 -48z" />
    <glyph glyph-name="uacute" unicode="&#xfa;" horiz-adv-x="820" 
d="M256 184q0 -121 99 -121q58 1 127 85t95 229l54 306h115l-97 -552q-17 -85 22 -85q17 0 42 15t40 31v-48q-29 -29 -69 -49q-90 -45 -134 7q-23 27 -23 59t7 72q-46 -79 -109 -123t-130 -44q-155 0 -155 200q0 49 10 105l50 280q3 15 3 51t-26 35q-35 0 -81 -46v47
q27 30 66 50t67 20q92 0 92 -106q0 -12 -4 -35l-51 -285q-10 -55 -10 -98zM688 1075q29 1 46 -15t13 -40q-7 -42 -59 -66l-304 -119l-7 13l222 179q60 48 89 48z" />
    <glyph glyph-name="ucircumflex" unicode="&#xfb;" horiz-adv-x="820" 
d="M256 184q0 -121 99 -121q58 1 127 85t95 229l54 306h115l-97 -552q-17 -85 22 -85q17 0 42 15t40 31v-48q-29 -29 -69 -49q-90 -45 -134 7q-23 27 -23 59t7 72q-46 -79 -109 -123t-130 -44q-155 0 -155 200q0 49 10 105l50 280q3 15 3 51t-26 35q-35 0 -81 -46v47
q27 30 66 50t67 20q92 0 92 -106q0 -12 -4 -35l-51 -285q-10 -55 -10 -98zM736 860l-31 -24l-191 156l-246 -156l-21 24l291 265z" />
    <glyph glyph-name="udieresis" unicode="&#xfc;" horiz-adv-x="820" 
d="M256 184q0 -121 99 -121q58 1 127 85t95 229l54 306h115l-97 -552q-17 -85 22 -85q17 0 42 15t40 31v-48q-29 -29 -69 -49q-90 -45 -134 7q-23 27 -23 59t7 72q-46 -79 -109 -123t-130 -44q-155 0 -155 200q0 49 10 105l50 280q3 15 3 51t-26 35q-35 0 -81 -46v47
q27 30 66 50t67 20q92 0 92 -106q0 -12 -4 -35l-51 -285q-10 -55 -10 -98zM640 997q34 0 53 -23q19 -22 13 -56t-34 -58t-59 -24t-50 17t-19 37t4 40q2 19 30 43t62 24zM369 997q34 0 53 -23q18 -22 12 -56t-34 -58t-58 -24t-50 17q-19 17 -19 37t3 40q3 19 31 43t62 24z
" />
    <glyph glyph-name="yacute" unicode="&#xfd;" horiz-adv-x="633" 
d="M654 1077q29 1 46 -15t13 -40q-7 -42 -59 -66l-304 -120l-7 14l222 179q60 48 89 48zM497 503q0 82 -53 146q-24 27 -21 44q5 37 47 37t72 -44q49 -73 19 -237q-41 -237 -203 -469t-370 -379q-207 -146 -372 -145q-85 0 -125 32q-39 32 -32 77q3 20 25 43t36 23
q14 1 47 -43t104 -44q109 0 245 86t265 228q34 213 33 400q-1 188 -37 284q-37 96 -87 96t-97 -47v47q67 72 153 71t135 -113q81 -186 28 -577q188 274 188 484z" />
    <glyph glyph-name="thorn" unicode="&#xfe;" horiz-adv-x="872" 
d="M321 125q0 -43 26.5 -62.5t96.5 -19.5l-7 -43h-420l7 43q97 0 131 42.5t62 196.5l126 711q10 60 10 107t-28 66.5t-98 19.5l7 43h420l-7 -43q-89 0 -124 -35t-59 -158h147q125 0 200 -78.5t75 -201.5l-7 -66q-26 -145 -137.5 -245t-253.5 -100h-147q-20 -134 -20 -177z
M468 377q99 0 190 91t91 237q0 92 -50 152.5t-136 60.5h-112l-96 -541h113z" />
    <glyph glyph-name="ydieresis" unicode="&#xff;" horiz-adv-x="633" 
d="M497 503q0 82 -53 146q-24 27 -21 44q5 37 47 37t72 -44q49 -73 19 -237q-41 -237 -203 -469t-370 -379q-207 -146 -372 -145q-85 0 -125 32q-39 32 -32 77q3 20 25 43t36 23q14 1 47 -43t104 -44q109 0 245 86t265 228q34 213 33 400q-1 188 -37 284q-37 96 -87 96
t-97 -47v47q67 72 153 71t135 -113q81 -186 28 -577q188 274 188 484zM483 997q34 0 53 -23q19 -22 13 -56t-34 -58t-59 -24t-50 17t-19 37t4 40q3 19 31 43t61 24zM212 997q34 0 53 -23q19 -22 13 -56t-35 -58t-59 -24t-49 17t-19 37t3 40q3 19 31 43t62 24z" />
    <glyph glyph-name="dotlessi" unicode="&#x131;" horiz-adv-x="421" 
d="M177 637q-35 0 -81 -46v47q27 29 66 49.5t67 20.5q92 0 92 -106q0 -12 -4 -35l-76 -436q-17 -85 22 -85q33 0 82 46v-48q-29 -29 -68.5 -49.5t-66.5 -20.5q-91 0 -91 105q0 10 4 37l77 435q3 15 3 51t-26 35z" />
    <glyph glyph-name="Lslash" unicode="&#x141;" horiz-adv-x="901" 
d="M352 1094q0 53 -26.5 72.5t-98.5 19.5l7 43h420l-7 -43q-96 0 -130 -42.5t-61 -196.5l-33 -179l162 108l43 -59l-222 -146l-63 -357q-17 -95 -17 -147t26.5 -72t96.5 -20h191q101 -1 137 31t70 124l13 41h33l-62 -271h-814l7 43q97 0 131 42.5t62 196.5l53 300l-221 -145
l-40 58l278 183l48 269q17 94 17 147z" />
    <glyph glyph-name="lslash" unicode="&#x142;" horiz-adv-x="413" 
d="M177 -26q-90 0 -90 105q0 10 3 37l82 461l-215 -140l-41 58l272 177l46 258q19 91 19 147t-21.5 74t-76.5 18l7 43l244 51l-89 -504l176 117l43 -59l-236 -155l-92 -531q-3 -15 -3 -50t25 -35q36 0 82 46v-48q-29 -29 -68 -49.5t-67 -20.5z" />
    <glyph glyph-name="OE" unicode="&#x152;" horiz-adv-x="1474" 
d="M1186 517q0 58 -34 77t-123 19h-75l-53 -299q-17 -95 -17 -147t26.5 -72t96.5 -20h130q101 -1 137 31t69 124l14 41h32l-61 -271h-574q-84 -34 -170 -34q-183 0 -296.5 144t-113.5 366q0 72 12 138q48 268 231.5 458.5t394.5 190.5q85 0 159 -34h522l-34 -272h-32v41
q-1 90 -27 123t-125 33h-225l-82 -466h75q116 0 153.5 34t59.5 162h33l-82 -468h-33q12 91 12 101zM799 1183q-179 0 -309 -188q-108 -157 -149 -381q-15 -85 -15 -174q0 -171 60 -273q70 -121 213 -121q65 0 130 27l189 1082q-54 28 -119 28z" />
    <glyph glyph-name="oe" unicode="&#x153;" horiz-adv-x="1134" 
d="M910 635q-77 0 -138.5 -77.5t-87.5 -217.5l-5 -36q131 29 217 106t80 153q0 72 -66 72zM456 717q154 0 220 -150q113 150 252 150q70 0 112 -40t42 -102q0 -108 -110 -199q-110 -90 -294 -129q0 -199 170 -199q39 0 92 26.5t94 67.5l19 -41q-49 -58 -122 -96.5
t-136 -38.5q-143 0 -203 145q-55 -67 -125.5 -106t-143.5 -39q-109 0 -180 84.5t-71 214.5v22q0 22 7 54q27 154 138 265t239 111zM335 29q87 0 153 95t78.5 200.5t12.5 132.5q0 197 -134 197q-89 0 -148 -86t-77 -188q-18 -100 -19 -155q0 -196 134 -196z" />
    <glyph glyph-name="Scaron" unicode="&#x160;" horiz-adv-x="853" 
d="M423 46q73 0 140 56q89 75 89 200q0 62 -38 118t-131 126l-116 87q-130 100 -130 251v43q5 20 7 29q22 130 114 218t209 89q117 0 189 -84q42 42 63 94h41l-80 -450h-43q7 94 7 102q0 258 -179 256q-73 0 -141 -59t-69 -163q0 -61 35 -109t98 -96l126 -90
q157 -114 157 -285q0 -29 -5 -58q-29 -160 -136 -258q-108 -97 -239 -97q-94 0 -173 58q-18 14 -56 48q-53 -49 -75 -106h-41l80 450h43q-5 -45 -3 -70q0 -136 63 -218t194 -82zM850 1645l-292 -264l-196 264l29 24l191 -155l246 155z" />
    <glyph glyph-name="scaron" unicode="&#x161;" horiz-adv-x="494" 
d="M180 -34q-86 0 -132 45q-48 45 -39 93t56 48q29 0 48 -61t95 -60q42 0 74 30t35 52t3 46t-18 58q-19 34 -43 56l-73 70q-29 27 -54 84t-12 119q12 62 68 116t142 55t122 -39t28 -82t-42 -41q-34 0 -47 53q-14 53 -72 52q-34 0 -65 -24t-35 -49q-4 -24 -4 -55t63 -95
l74 -70q72 -67 71 -160q0 -11 -3 -31q-18 -98 -86 -154t-154 -56zM681 1099l-292 -264l-196 264l29 24l191 -155l246 155z" />
    <glyph glyph-name="Ydieresis" unicode="&#x178;" horiz-adv-x="955" 
d="M509 135q0 -53 26 -73t96 -19l-6 -43h-434l7 43q97 1 131 43t62 196l19 102q39 230 39 413q1 183 -49 281t-120 100q-22 0 -53 -16t-46 -32v48q32 36 76 54t81 17q118 1 167 -135t50 -469q106 294 198 434q111 169 232 169q56 0 87 -32t31 -71q-1 -39 -19 -58
q-18 -20 -45 -20q-35 0 -49 49t-53 50q-89 0 -219 -272t-172 -501l-20 -111q-17 -94 -17 -147zM817 1541q34 0 53 -23t13 -56t-34 -57t-59 -24q-32 0 -50 17q-18 18 -18 38t3 39t31 43t61 23zM546 1541q34 0 53 -23t13 -56t-34 -57t-59 -24t-50 17q-19 18 -19 38t4 39
q2 19 30 43t62 23z" />
    <glyph glyph-name="Zcaron" unicode="&#x17d;" horiz-adv-x="884" 
d="M346 166q-86 0 -148 -58q-63 -70 -125 -140q-46 -9 -46 63t158 273q158 200 343 400t320 320q-76 -27 -140 -27t-158 64t-158 64q-65 0 -175 -116l-19 12q46 94 110 160q123 127 292 10q168 -117 199 -118q73 -1 126 87t67 88q32 0 32 -36q0 -14 -4 -36
q-12 -59 -158 -212q-169 -171 -338 -377t-256 -355q55 10 96 10q138 0 227 -111q63 -105 132 -211t159 -106t185 65q34 24 88 72l26 -23q-171 -259 -355 -259q-108 0 -193 128q-65 119 -128 239q-73 130 -159 130zM882 1645l-291 -264l-197 264l29 24l191 -155l246 155z" />
    <glyph glyph-name="zcaron" unicode="&#x17e;" horiz-adv-x="576" 
d="M717 1099l-292 -264l-196 264l29 24l191 -155l246 155zM232 717q49 0 116 -53q68 -53 104 -53t72 53t48 53q27 0 21 -33q-6 -34 -25 -64t-123 -136q-233 -236 -298 -347l51 5q96 0 172 -110t144 -111q85 0 146 57l24 -22q-51 -79 -102 -124t-121 -45t-150 148t-130 149
q-55 0 -89 -35q-36 -43 -72 -83q-17 -5 -31 5t-5 61q10 50 188 244t284 287q-40 -10 -72 -10q-32 1 -94 25t-102 24q-41 0 -86 -46l-22 16q70 145 152 145z" />
    <glyph glyph-name="florin" unicode="&#x192;" horiz-adv-x="459" 
d="M708 1060q-41 0 -54.5 71.5t-71.5 71.5t-114 -79q-55 -79 -84 -240l-34 -201h164l-14 -74h-164l-147 -827q-31 -172 -101 -250t-156 -78t-128.5 40t-42.5 90q0 73 68 73q41 0 48 -71.5t65 -71.5q46 0 76.5 60.5t56.5 207.5l147 827h-133l13 74h134l34 201q31 172 128 276
t189 103q93 -1 139 -43t45 -94q0 -66 -63 -66z" />
    <glyph glyph-name="hungarumlaut" unicode="&#x2ba;" horiz-adv-x="672" 
d="M775 1386q29 0 46 -16t13 -40q-7 -45 -59 -65l-304 -120l-7 14l222 179q60 48 89 48zM536 1386q29 0 46 -16t13 -40q-7 -45 -59 -65l-304 -120l-7 14l222 179q60 48 89 48z" />
    <glyph glyph-name="circumflex" unicode="&#x2c6;" horiz-adv-x="699" 
d="M700 1092l-31 -24l-191 156l-246 -156l-20 24l290 265z" />
    <glyph glyph-name="caron" unicode="&#x2c7;" horiz-adv-x="696" 
d="M722 1362l-292 -265l-196 265l29 24l191 -155l246 155z" />
    <glyph glyph-name="breve" unicode="&#x2d8;" horiz-adv-x="631" 
d="M442 1171q-72 0 -113 38.5t-41 106.5v19q3 14 4 20h32q9 -44 42 -70.5t85 -26.5t96.5 27t66.5 70h33q-15 -84 -74 -134t-131 -50z" />
    <glyph glyph-name="dotaccent" unicode="&#x2d9;" horiz-adv-x="634" 
d="M435 1355q34 0 53 -23t13 -56t-34 -57t-59 -24t-49.5 17.5t-18.5 37.5t3 38.5t30.5 42.5t61.5 24z" />
    <glyph glyph-name="ring" unicode="&#x2da;" horiz-adv-x="457" 
d="M370.5 1295q-39.5 0 -72 -27t-39 -66.5t15.5 -66.5t61 -27t71.5 27t39.5 66.5t-15 66.5t-61.5 27zM380 1370q68 0 107 -39t39 -113t-66 -129.5t-132 -55.5t-106.5 39t-40.5 113t65.5 129.5t133.5 55.5z" />
    <glyph glyph-name="ogonek" unicode="&#x2db;" horiz-adv-x="453" 
d="M145 -265q-58 0 -91.5 32t-33.5 98t66 118.5t132 52.5q3 0 60 -10l-17 -26h-14q-39 0 -76.5 -25.5t-41.5 -46t-4 -44.5t17.5 -42.5t49.5 -18.5q69 0 95 46l22 30l7 -39q-17 -58 -65 -91.5t-106 -33.5z" />
    <glyph glyph-name="tilde" unicode="&#x2dc;" horiz-adv-x="614" 
d="M601 1236q60 0 106 97h32q-19 -97 -65 -150t-113 -53q-36 0 -119.5 56t-111.5 56t-57 -27t-46 -66h-31q15 87 63 143t97 56t129 -56t116 -56z" />
    <glyph glyph-name="summation" unicode="&#x3a3;" horiz-adv-x="1087" 
d="M817 1154h-392l218 -705l-438 -722h413q131 -1 178 31t86 124l17 41h43l-65 -271h-875l7 34l479 790l-223 719l6 34h833l-31 -272h-42l-4 41q-1 88 -39 122t-171 34z" />
    <glyph glyph-name="Omega" unicode="&#x3a9;" horiz-adv-x="1177" 
d="M343 683q0 -218 160 -265l-73 -418h-331l41 305h32l-1 -40q1 -90 27 -123t125 -33h52l43 241q-104 46 -160.5 138t-56.5 208v48q5 20 7 31q34 187 189 323t345 136t297 -110q106 -110 106 -279q0 -170 -113.5 -306t-251.5 -187l-43 -243h53q101 -1 137 31t70 125l15 40
h32l-68 -305h-334l73 418q123 34 192 138q100 150 100 323q0 121 -53 189q-67 87 -213 87q-179 0 -284 -126q-80 -96 -105 -249q-9 -51 -9 -97z" />
    <glyph glyph-name="pi" unicode="&#x3c0;" horiz-adv-x="897" 
d="M256 568q-96 0 -96 -85q0 -17 2 -26l-37 -8q-42 123 15.5 178.5t132.5 55.5h457q96 0 96 82q0 9 -3 29l37 8q42 -123 -15.5 -178.5t-131.5 -55.5h-49l-79 -445q-3 -15 -3 -51t26 -34q17 0 41.5 15t39.5 31v-48q-29 -29 -68 -49.5t-66 -20.5q-91 0 -91 104q0 10 4 38
l82 460h-157l-82 -460q-27 -142 -113 -142q-56 0 -89 70l17 48q34 -62 62 -62q38 0 53 86l82 460h-67z" />
    <glyph glyph-name="endash" unicode="&#x2013;" horiz-adv-x="1075" 
d="M1094 391h-1077l15 90h1077z" />
    <glyph glyph-name="emdash" unicode="&#x2014;" horiz-adv-x="1365" 
d="M1382 391h-1367l16 90h1367z" />
    <glyph glyph-name="quoteleft" unicode="&#x2018;" horiz-adv-x="411" 
d="M379 1263q41 0 63 -24t22 -47q0 -62 -36.5 -94.5t-77.5 -32.5l-17 2q0 -65 16 -111.5t64 -107.5l-29 -24q-67 48 -102 121.5t-35 157.5t45.5 122t86.5 38z" />
    <glyph glyph-name="quoteright" unicode="&#x2019;" horiz-adv-x="411" 
d="M368 1263q40 0 66.5 -25.5t26.5 -75.5q1 -82 -73 -182t-173 -156l-19 24q68 60 102 108t54 111l-17 -2q-36 0 -58.5 24t-21.5 47t5 47t36 52t72 28z" />
    <glyph glyph-name="quotesinglbase" unicode="&#x201a;" horiz-adv-x="494" 
d="M185 181q40 0 65.5 -24t25.5 -73q0 -88 -73 -187t-172 -155l-19 24q68 60 101.5 108t53.5 111l-17 -2q-36 0 -58 24t-21 47t5 46t36.5 52t72.5 29z" />
    <glyph glyph-name="quotedblleft" unicode="&#x201c;" horiz-adv-x="752" 
d="M379 1263q41 0 63 -24t22 -47q0 -62 -36.5 -94.5t-77.5 -32.5l-17 2q0 -65 16 -111.5t64 -107.5l-29 -24q-67 48 -102 121.5t-35 157.5t45.5 122t86.5 38zM725 824q-136 97 -136 279q0 84 45 122t86 38t63.5 -24t22.5 -47q0 -61 -37 -94t-78 -33l-17 2q0 -65 16 -111.5
t64 -107.5z" />
    <glyph glyph-name="quotedblright" unicode="&#x201d;" horiz-adv-x="752" 
d="M708 1263q40 0 67 -25.5t27 -75.5q0 -84 -74 -183t-172 -155l-18 24q68 60 101.5 108t53.5 111l-17 -2q-36 0 -58 24t-21 47t0 28q9 43 40 71t71 28zM368 1263q40 0 66.5 -25.5t26.5 -75.5q1 -82 -73 -182t-173 -156l-19 24q68 60 102 108t54 111l-17 -2q-36 0 -58.5 24
t-21.5 47t5 47t36 52t72 28z" />
    <glyph glyph-name="quotedblbase" unicode="&#x201e;" horiz-adv-x="752" 
d="M520 181q40 0 65.5 -24t25.5 -73q1 -88 -73 -187t-173 -155l-19 24q68 60 102 108t54 111l-17 -2q-36 0 -58.5 24t-21.5 47t5 46t37 52t73 29zM178 181q40 0 66 -24t26 -73q0 -86 -74 -186t-172 -156l-19 24q68 60 101.5 108t53.5 111l-17 -2q-36 0 -58 24t-21 47
q2 23 6 46t36 52t72 29z" />
    <glyph glyph-name="dagger" unicode="&#x2020;" horiz-adv-x="916" 
d="M362 1029q20 0 34 -3l160 -57l-29 188q-5 38 27.5 72t69.5 34t58 -21.5t21 -45.5t-7 -39l-97 -188l181 57q14 3 35 3t41.5 -25.5t14.5 -60.5t-37.5 -62.5t-49.5 -27.5t-33 4l-159 54l-37 -454l-207 -839h-15l89 839l122 456l-177 -56q-14 -3 -35 -3t-42.5 26t-16.5 62
q7 36 38 61.5t51 25.5z" />
    <glyph glyph-name="daggerdbl" unicode="&#x2021;" horiz-adv-x="916" 
d="M621 12q34 0 55.5 -26.5t15.5 -61.5t-36 -61.5t-51 -26.5t-35 4l-160 56l30 -188q5 -38 -29 -72t-69 -34t-56 21.5t-21 46.5t6 38l96 188l-181 -56q-14 -4 -33 -4t-41.5 26.5t-17.5 60.5q7 34 38.5 61.5t51.5 27.5t33 -3l158 -57l43 481l126 480l-177 -56q-14 -3 -35 -3
t-42.5 26t-16.5 62q7 36 38 61.5t51 25.5t34 -3l160 -57l-29 188q-5 38 27.5 72t69.5 34t58 -21.5t21 -45.5t-7 -39l-97 -188l181 57q14 3 35 3t41.5 -25.5t14.5 -60.5t-37.5 -62.5t-49.5 -27.5t-33 4l-159 54l-41 -478l-128 -479l178 55q14 3 20 3z" />
    <glyph glyph-name="bullet" unicode="&#x2022;" horiz-adv-x="552" 
d="M332 628q62 0 99 -36.5t37 -106.5t-61 -120.5t-122 -50.5t-98 36.5t-37 104.5t60 120.5t122 52.5z" />
    <glyph glyph-name="ellipsis" unicode="&#x2026;" horiz-adv-x="1501" 
d="M1194 -17q-38 0 -60.5 24t-21.5 47q2 23 6 46t36 52t70 29t61.5 -24t23.5 -47q0 -61 -38.5 -94t-76.5 -33zM682 -17q-38 0 -60.5 24t-21.5 47q2 23 6 46t36 52t70 29t61.5 -24t23.5 -47q0 -61 -38.5 -94t-76.5 -33zM170 -17q-38 0 -60.5 24t-21.5 47q2 23 6 46t36 52
t70 29t61.5 -24t23.5 -47q0 -61 -38.5 -94t-76.5 -33z" />
    <glyph glyph-name="perthousand" unicode="&#x2030;" horiz-adv-x="2321" 
d="M1702 195q0 -168 148 -168q89 0 148 66t76 168q2 17 4 32.5t2 34.5q0 167 -148 167q-89 0 -159.5 -78.5t-70.5 -221.5zM1846 -32q-118 0 -192 70t-74 175q0 145 119 243.5t237 98.5t192 -70t74 -176q-7 -149 -122.5 -245t-233.5 -96zM355 903q0 -167 148 -167
q89 0 160 79t71 223q0 73 -37.5 119t-119.5 46t-142.5 -69t-70 -140.5t-9.5 -90.5zM942 195q0 -168 149 -168q89 0 147.5 66t75.5 168q2 17 4.5 32.5t2.5 34.5q0 167 -149 167q-89 0 -150 -68.5t-70.5 -141t-9.5 -90.5zM500 676q-120 0 -192 70.5t-72 176.5q0 144 117.5 242
t236.5 98t192 -70t73 -176q0 -149 -117.5 -245t-237.5 -96zM1376 1229l-1009 -1265l-67 36l1009 1266zM1086 -32q-119 0 -192 70t-73 175q0 144 118.5 243t237.5 99t192 -70t73 -176q0 -145 -118.5 -243t-237.5 -98z" />
    <glyph glyph-name="guilsinglleft" unicode="&#x2039;" horiz-adv-x="1024" 
d="M848 140l-36 -38l-595 446l752 445l24 -36l-548 -409z" />
    <glyph glyph-name="guilsinglright" unicode="&#x203a;" horiz-adv-x="1024" 
d="M899 548l-752 -446l-26 38l550 408l-405 409l38 36z" />
    <glyph glyph-name="trademark" unicode="&#x2122;" horiz-adv-x="1983" 
d="M531 1161q-131 -1 -179 -33t-86 -123h-46l80 224h422q131 1 179 33t85 122h47l-81 -223h-273l-78 -449q-17 -87 -17 -143.5t26.5 -76t96.5 -19.5l-9 -43h-404l8 43q96 0 131 42.5t62 196.5l78 449h-42zM1113 539q0 -41 23 -56t79 -15l-7 -38h-351l7 38q92 0 138 44
t80 171l79 293q22 79 22 129t-30 68t-100 18l7 38h261l92 -632l314 632h232l-7 -38q-102 0 -142 -39t-40 -176l-21 -293q0 -131 26 -173t114 -42l-7 -38h-392l7 38q92 0 121 42.5t29 172.5l26 341l-313 -625h-20l-98 652l-99 -368q-30 -103 -30 -144z" />
    <glyph glyph-name="partialdiff" unicode="&#x2202;" horiz-adv-x="1000" 
d="M265 276q0 -101 46.5 -164.5t136.5 -63.5t163 75q113 116 166 377q0 63 -65 107.5t-164 44.5q-98 0 -176 -89t-101 -211l-3 -31q-3 -31 -3 -45zM811 867q0 135 -48 236t-155 100q-79 0 -152.5 -71.5t-87.5 -71.5t-29.5 12.5t-15.5 33.5q1 52 93 108t205 56
q159 0 239 -142t79 -360q-1 -111 -21 -224q-56 -317 -217 -467q-119 -111 -257 -111t-225.5 90.5t-87.5 225.5l7 68q27 159 156 271.5t285 112.5q75 0 132 -34t83 -87q17 119 17 254z" />
    <glyph glyph-name="Delta" unicode="&#x2206;" horiz-adv-x="1140" 
d="M41 0l689 1263h43l224 -1263h-956zM183 89h650l-157 904z" />
    <glyph glyph-name="product" unicode="&#x220f;" horiz-adv-x="1262" 
d="M404 1086q0 58 -35.5 79t-132.5 21l6 43h1110l-7 -43q-126 0 -169 -43.5t-70 -195.5l-118 -665q-15 -82 -15 -140t35.5 -78.5t133.5 -20.5l-7 -43h-480l7 43q142 0 169 71q12 31 36 168l152 856h-475l-151 -856q-23 -119 -23 -164t29 -60t113 -15l-7 -43h-479l6 43
q126 0 169 43.5t70 195.5l118 665q15 81 15 139z" />
    <glyph glyph-name="fraction" unicode="&#x2215;" horiz-adv-x="711" 
d="M951 1229l-1009 -1265l-67 36l1009 1266z" />
    <glyph glyph-name="radical" unicode="&#x221a;" horiz-adv-x="1124" 
d="M323 548l121 54l95 -419l732 1334h84l-858 -1561h-31z" />
    <glyph glyph-name="infinity" unicode="&#x221e;" horiz-adv-x="1459" 
d="M436 836q-66 0 -131.5 -58.5t-65.5 -134.5q0 -75 38.5 -115t108.5 -40t302 174q-55 58 -87 87q-99 87 -165 87zM1180 836q-82 0 -344 -174q67 -58 104 -87q116 -87 182 -87t126 53t70 155q0 60 -38 100t-100 40zM1092 394q-78 0 -168 64t-154 143q-97 -82 -209 -144
q-112 -63 -205 -63t-157 60.5t-64 158.5q0 142 103 229.5t228 87.5q74 0 166 -63t160 -143q94 82 204 144t205 62q94 0 157.5 -59.5t63.5 -157.5q0 -144 -102.5 -231.5t-227.5 -87.5z" />
    <glyph glyph-name="integral" unicode="&#x222b;" horiz-adv-x="390" 
d="M674 1060q-41 0 -54.5 71.5t-72.5 71.5t-113 -79t-84 -240l-195 -1102q-31 -172 -101 -250t-156 -78t-128.5 40t-42.5 90q0 73 68 73q41 0 48 -71.5t65 -71.5q46 0 76.5 60.5t56.5 207.5l195 1102q31 172 128 276t189 103q93 -1 139 -43t45 -94q0 -66 -63 -66z" />
    <glyph glyph-name="approxequal" unicode="&#x2248;" 
d="M340 432q56 0 150 -34t145 -34q50 1 131 68l-18 -103q-77 -68 -149 -68q-39 1 -134 35t-143 33t-133 -68l19 103q76 68 132 68zM388 705q55 -1 150 -35t145 -33t131 68l-19 -103q-76 -68 -148 -68q-39 0 -134 34t-145 34q-50 -1 -131 -68l19 103q77 68 132 68z" />
    <glyph glyph-name="notequal" unicode="&#x2260;" 
d="M698 635h131l-17 -91h-196l-145 -165h312l-15 -91h-375l-197 -221l-58 37l162 184h-129l15 91h193l147 165h-311l17 91h374l198 223l58 -39z" />
    <glyph glyph-name="lessequal" unicode="&#x2264;" 
d="M749 249l-30 -41l-571 340l690 339l17 -39l-478 -300zM800 89l-15 -91h-734l16 91h733z" />
    <glyph glyph-name="greaterequal" unicode="&#x2265;" 
d="M785 -2h-734l16 91h733zM882 548l-689 -340l-17 41l478 299l-372 300l30 39z" />
    <glyph glyph-name="lozenge" unicode="&#x25ca;" horiz-adv-x="1012" 
d="M473 70l389 536l-203 514l-386 -514zM686 1282l273 -678l-515 -698l-272 698z" />
    <glyph glyph-name="apple" unicode="&#xf000;" horiz-adv-x="0" 
 />
    <glyph glyph-name="fi" unicode="&#xf001;" horiz-adv-x="880" 
d="M669 -26q-90 0 -90 105q0 10 3 37l72 408q3 14 3 50t-26 35h-295l-147 -827q-31 -172 -101 -250t-156 -78t-128.5 40t-42.5 90q0 73 68 73q41 0 48 -71.5t65 -71.5q46 0 76.5 60.5t56.5 207.5l147 827h-133l13 74h134l34 201q31 179 132 279t225 100q124 1 182 -53
t58 -119q0 -36 -18.5 -59t-48.5 -23t-53 97t-117 97q-191 0 -246 -319l-34 -201h334q44 0 67.5 -27.5t23.5 -57.5t-4 -57l-71 -410q-17 -85 22 -85q33 0 82 46v-48q-29 -29 -68.5 -49.5t-66.5 -20.5z" />
    <glyph glyph-name="fl" unicode="&#xf002;" horiz-adv-x="872" 
d="M637 -26q-91 0 -91 105q0 10 4 37l146 831q19 91 19 147t-21.5 74t-75.5 18h-24q-70 0 -126 -77t-86 -242l-32 -184h164l-14 -74h-164l-147 -827q-31 -172 -101 -250t-156 -78t-128.5 40t-42.5 90q0 73 68 73q41 0 48 -71.5t65 -71.5q46 0 76.5 60.5t56.5 207.5l147 827
h-133l13 74h134l32 184q31 171 131 275t214 104h251l-197 -1115q-3 -15 -3 -50t25 -35q36 0 82 46v-48q-29 -29 -68 -49.5t-66 -20.5z" />
    </font>
</defs>
</svg>
